<mxfile host="Electron" modified="2023-11-20T10:16:20.014Z" agent="Mozilla/5.0 (Macintosh; Intel Mac OS X 10_15_7) AppleWebKit/537.36 (KHTML, like Gecko) draw.io/22.1.2 Chrome/114.0.5735.289 Electron/25.9.4 Safari/537.36" etag="1INCgKVN7MUmCDim1UuG" version="22.1.2" type="device">
  <diagram name="ページ1" id="T0BcUhw58Rg8EvbRcniI">
    <mxGraphModel dx="1368" dy="991" grid="1" gridSize="10" guides="1" tooltips="1" connect="1" arrows="1" fold="1" page="1" pageScale="1" pageWidth="827" pageHeight="1169" math="0" shadow="0">
      <root>
        <mxCell id="0" />
        <mxCell id="1" parent="0" />
        <mxCell id="4Eko1OY5xelyAzkIzd4i-11" value="(1)&lt;br&gt;image collection" style="edgeStyle=orthogonalEdgeStyle;rounded=0;orthogonalLoop=1;jettySize=auto;html=1;entryX=0;entryY=0.5;entryDx=0;entryDy=0;strokeWidth=3;" edge="1" parent="1" source="4Eko1OY5xelyAzkIzd4i-6" target="4Eko1OY5xelyAzkIzd4i-10">
          <mxGeometry x="0.1111" y="-25" relative="1" as="geometry">
            <mxPoint x="1" as="offset" />
          </mxGeometry>
        </mxCell>
        <mxCell id="4Eko1OY5xelyAzkIzd4i-6" value="" style="ellipse;shape=cloud;whiteSpace=wrap;html=1;" vertex="1" parent="1">
          <mxGeometry x="30" y="80" width="160" height="210" as="geometry" />
        </mxCell>
        <mxCell id="4Eko1OY5xelyAzkIzd4i-5" value="" style="shape=image;verticalLabelPosition=bottom;labelBackgroundColor=default;verticalAlign=top;aspect=fixed;imageAspect=0;image=data:image/png,iVBORw0KGgoAAAANSUhEUgAAAQAAAAEACAYAAABccqhmAAAgAElEQVR4Xu2dDZBW1XnHWVxEFmxRsdKoEQ0atHHUVmb8wHYxICzuMmsi0yCQqhPjt4YRbdGmgqaNVjHYfPgRjdgoaFfDCgtsRqyrUmMiExlLLOpaUZlKK41MXXAjC9v/Q+46L+u+9zznnnM/3vP+78ydRd/nPOec/33O755z7rnn1gzikasC06ZNG11TU/MsCjEu14JUV+ZbUN0enNtwdkH/7b29vZ0438K/5e/G1atXb60GSWqqoZJFrSMa/2QE3AKU74yilrGKy7UJdV+P67MeQHi5rq5ufUtLyyeh6UEA5HRFGxsbv4zAksY/IaciMFs7BaSXtnbw4MFPr1y58mW7pMW1JgByuDbs9ucgur8se9AraMd5O0Cwzp/bfDwRABnrzsafseApZgcItKJHcP2KFSs6U8wmVdcEQKry7usc3f56dPtvxv+tzzBbZpWuAr/FNV0GGCxdtWrVi+lm5d87AeBf0wE9svFnJHR+2WxG1ktxLgMINuZXDLucCQA7vRJZs9ufSLZKTbR1z549l69Zs6a1EipAAKR8lXjnT1ngYrqXtQWLMD+wCPMDHxWziL8vFQGQ4tVh409R3MpwfT/mBxZhUdEbRS0uAZDSlWHjT0nYynO7IoLA80UsOgGQwlVh409B1Ap2KSsJZTjQ1tb2eNGqQQB4viKc8PMsaDjuZAHRTEDgiSJViQDweDV45/coZpiutgAC84rUEyAAPAUaG78nIQN3I8MBVHEeJgYLMSdAAHgIuJS7/X2vrnooKV1EChyBv7U5qrERbxeejrcLu3Isw96sCQDHK5By4x+0e/fuo9vb2zc7FpPJ+ynQ1NQ0Cgt2RuOOLDAYjUm6L+Df9fh3Jm9nynsEGAqcl/eFIQAcrkAW3f4hQ4Yc1Nraut2hmExqoQCu6bECAcBAQCDncRbJrUwBgYWAwAKrRJ6NCYCEgmbR+KVoBEDCC+Qh2bnnnnsM3MzEeQHOEzy43McFANCFXojMB9zn27fWHwGgVarELqvGTwAkuDgpJMH1PgkNVSAwE432SJ9ZwN+r6G3MyusFIgLA8mqmPebvXxzOAVheoBTNp0+fPhbX4/vIYqrnbBYDAHM9+1S5IwBUMv3eKMs7f1+xOASwuEAZmGJYcBCyuQ7nPJxDPWX5LiYhZ+WxwxABoLyCeTR+DgGUFycHM4Dg6ggER3nK/h70Aq7w5EvthgBQSJV1t7+0SBwCKC5QTiZ4lDgBcwMtyH60jyLA1+nYR+AlH760PggAg1J53fk5BNCGcL52iI/z5W0/lOLzriWRbcXwWHA2/PS6+tKmJwBilMq78XMIoA3jfO3QQ7xGNgBBKZxXF8LPbEDg0axqRACUUTrPbj+HAFmFv798MCdwB7zJxKDrsR5zAeNdnWjTEwADKFWUxi9F4xyANpTztauvr68dPnz4GpRikmtJMKQ4BYuDNrj60aQnAPqpVIRuf2mR+BhQE8bFsGloaDgbj/NkZ+DDHEt0C3oBsn186gcBUCJx0Rq/FI0ASL0NeM0AQ4G74NB1Uc+LAMlkrAvY6bVwAzgjACJRitTtL71OHAKk3QT8+o/eMnwTXke6eMZk4ERMBna4+NCkJQCgUhHv/H0Xjz0ATRgXywa9gIUo0d+5lArzAPMxD3Cbiw9N2qoHQFHv/H0Xjz0ATRgXywYTggdgQvA9lGqUQ8nWYR7gLIf0qqRVDYAi3/nZA1DFb2GNcGN5GN34rzsU8B2sDByPlYEfOPgwJq1aABT9zs8egDF2C22AJwLNmMhb7ljIyegFrHX0EZu8KgFQCXd+9gDSDPv0fWMe4Hjk8gLOQ5Lmhh7ExZgIfChpek26qgNAJTV+uYCcBNSEcTFtEGvLMZnX7FC61NcDVBUAKqXbXxownAR0aD45JwUArgIAZAORRAd6AOgAtDUlSqxMVDUAqMTGL9eQAFBGcgHNMAyQZcFPOxRtE+YAZCiR2lEVAKi0bn/p1eYQILXYT91xtDT4maQZoffwOtYCjEuaXpMueABUcuPnHIAmhItrAwCcgCcBv3Eo4fvoAXzOIb0xadAAqPTGTwAY47fQBlOmTDm4trb2fRRy/4QF3TF+/Pg/WLBgwZ6E6Y3JggVACI2fADDGb+ENMA/wDgqZeLegtIeAQQIglMZPABS+fRsLCAC8DaMxRsMyBgSApXIhNX4CwPLiF9CcAMjwooTW+AmADIMnpawIgJSE7e82xMZPAGQUPClmQwCkKG6f61AbPwGQQfCknAUBkLLAITd+AiDl4MnAPQGQosihN34CIMXgycg1AZCS0NXQ+AmAlIInQ7cEQApiV0vjJwBSCJ6MXRIAngWvpsZPAHgOnhzcEQAeRa+2xk8AeAyenFwRAJ6Er8bGTwB4Cp4c3RAAHsSv1sZPAHgInpxdEACOF6CaGz8B4Bg8BUhOADhchErdxsuhyp9Jyi3BfKqZvS9XAKR9/Qv7OnC13/mjUP2orq7usJaWlo+zD13m6EMBVwBU5evAbPyfhl4ntoQ61kcg0kc+ChAAlrqz8e8j2IsAwJmWEtK8QAoQABYXg43/M2ItBwC+YiEhTQumAAGgvCCc8BtQqEcAgDlKCWlWQAVcAVAVk4C88w8cufg67Hn4OmxrAeOaRVIq4AqA4CcB2fjLRtJr3d3df/7MM8/8rzLWaFZABQiAmIvCxh8bsfeh+39ZAWOaRbJQgAAoIxbH/MYomgMAPGK0okGhFXAFQJBzALzzG2P2CSwAmoUFQJ8YLWlQaAVcARDcHAAbvzFeP8ZnoWfhs9DLjZY0KLwCBEDJJWK3XxWvHej6T1RZ0qjwCrgCIJghABu/KlZ78Eno0/FJ6PUqaxoVXgECAJcIIkzCn5txTij8FcuvgP+Nxn89Gv9P8ysCc/atgCsAKn4OoKmp6RwsaJHGf4ZvcUPyh8Z/Axr/HSHViXXZe/Or3o+DovGPQuN/AYEwjsEQq8ATO3bsmNnR0dFDncJSwBUAFT0HEM34PxvWJfVamw/hbREgeSeW/P7Oq2c6K4QCrgCo6CEAARAbg5vw652Y8X+wEJHKQqSiAAHQ28sewGdDqxP/63I0/rWpRB2dFkYBVwBwCFCYS+mlIALDR7HKbym3+fKiZ+GduAKAQ4DCX2JVAbdgdd+DtbW1i1tbW7erUtAoCAVcAcAeQOWGwQY0+jZM8D2Jx3sbKrcaLLmLAgSA2xzAOjwfr5RJsq0IlK0o7zbM6G9xCRqmDUcBAsANAEswUXZROOHAmlSbAq4AqPY5AAKg2lpMYPUlANgDCCykWR0bBQgAAsAmXmgbmAIEAAEQWEizOjYKEAAEgE280DYwBQgAAiCwkGZ1bBQgAAgAm3ihbWAKEAAEQGAhzerYKEAAEAA28ULbwBQgAAiAwEKa1bFRgAAgAGzihbaBKUAAEACBhTSrY6MAAUAA2MQLbQNTgAAgAAILaVbHRgECgACwiRfaBqYAAUAABBbSrI6NAgQAAWATL7QNTAECgAAILKRZHRsFCAACwCZeaBuYAgQAARBYSLM6NgoQAASATbzQNjAFCAACILCQZnVsFCAACACbeKFtYAoQAARAYCHN6tgoQAAQADbxQtvAFCAACIDAQprVsVGAACAAbOKFtoEpQAAQAIGFNKtjowABQADYxAttA1OAACAAAgtpVsdGAQKAALCJF9oGpgABQAAEFtKsjo0CBAABYBMvtA1MAQKAAAgspFkdGwUIAALAJl5oG5gCBAABEFhIszo2ChAABIBNvNA2MAUIAAIgsJBmdWwUIAAIAJt4oW1gChAABEBgIc3q2ChAABAANvFC28AUIAAIgMBCmtWxUYAAIABs4oW2gSlAABAAgYV0ttWZNm3a6D179hyAY3tra+v2bHN3z40AqBAANDc3j/zkk09Oq6mp+RLOEbaXvre3twvnNpzb99tvv+09PT2b29vbN9v60dijUUxFGWfB9ks4paydyPepnTt3PtDR0dGj8aGxQT6XIZ+/hO0YnNtwvjR48OCFK1eulH97PZqamkahoc9Gfn+Cukh+ch6B84CSjLrw7y3RuQl/n9qxYweq7K/OXisFZwRABQAAgf4NBN4duF4jPQeAAKAD588RqE+4Bmp9fX3t8OHDfwx/F5Yp50Y0nsmrV6/e6lqPxsbGlfDVOICfbQDc6StWrOh0zUPSo4EIcK9EXlKn0saudS91fQzweHzNmjUvaRNlZUcAFBwADQ0Np+Gu9osMAkJgcDdAcC9A0J0kPwTTt5Due4a0m9CYJrpAAEC8EI3yoZh81q5atWpykjr0pUEepyKPW/HfU1389Eu7ZMiQIXOLNFQgAAoOAFygFgTR+R6D0ORqI+6g59neQWWIsmvXrrfhXNNL6UADnWgqSLnfNZrU1dUd2NLSIl1y6wP+r0OiG3EebJ3YnOBFgOW+tra2fzabpm9BABQfAP+BMBiXfijsk4PMF8zEXbpNm290x3xZaw//l8P/vVr7UjsE7Sv475Pj0sL/KfC/wdY/fM9GGuld1NqmtbFH+S5C+ZbYpEnDlgAoPgB607jwCp9vYegxDxNqrQrbQRiTX4ugXqyxjWx+jXHxHIyLX7NIs9cUQfsh/sT2NGwBMGnSpD/cf//9b8Td+Qbb8iS034y8rkdP4ImE6b0kIwAIgLhA2ho1JOOkHQCwALY3W0blP2AocJNlmlQAgB5MIxrkStuyONpvBQTHA4Ly5CCXgwAgAEyB9yM00itNRgkB8C6gMQdd4edN/kt/990DQOM/Cr2dx1CW02zK4cMW0PkhegFX+fCVxAcBQACY4kYWt8wGBFbFGSYEgLi8H64vNRUiTQCgEXwN/pfZlCGylTu3PO+Xv2NwyrqAsZZ+evBk4NC8ngwQAOEAYPLu3bvLPvvGzP5Y3G3G4S73BQTohTg1s/V7YxnpcJNqa0oJADvhfzb8L9c2HJ89gGjtgky0ahvudpT3XnTd7x7oUSZ6EyejN3EpdL5MWx/4Oj2vNQIEQCAAwF20Rhtw0ao2WVgkINAc3VgfcFDc+gCHHoDk/zM0mjmYcNypKYxPACjWFJQWaSvKORHllLt+7IEyToKBQM24ahOwGA+YrDf5TON3AqAKAdAXSLj4/4R/X60JLARpU9xjQUcASC/jm+gFyCpC4+ETAPD1LDKsN2Y6aFAXGv94TePv8wXQTsDdfY0BAka4KsqW2IQAqGIAzJgxYwTW58uze+M6AzTQhWigC8pFmisA4Pf52tra2U899dR7pmj2BQCU+SSA7ZfIb6gpT9T/RtT/uya7/r8jj0uQh6Q7ZKC0+O1agFVAnMtBAFQxACTiEACydFeW8MYeCNR/RKD+dYoAkF6AqpH5AkDUTX/aVHf83o36H510+XL0iPGn8FM67yIvRf0AQ6vrXd/BUJS/rAkBQABcgej4oSmI0DgfwB3wkjQBAN+vyRt3mBCTlX5xQetlIZDy3QUph9PSZXGAycYDDjzwwFNRv1Pxn9swnFhvM5wwXZ+kvxMAVQ4AdFHrcXeTcbDpiG0EHoYAe/NHWe7CnVbW4qcOAJT5Hs1sPeB3G+A33yRQJf5OAOiCv9y1XYLZ94vSvPC4QKqlwDZPAUrLG734cqeiDvcgD+ktDHh4BMD/IIPZgEDZrrnHIcA65HWmqe4AwMUAQNzbhyYXhf2dACAA5IUc40IcNILvoBF82xEAjyC9bBIS+yIPfo99nVcTtCjvRJS3w9CTUD0BKMqLO2lQRKNlXL5YxHRQmouY1M+2k4hj0f0NsgcQrQeQ8basYIs90Ajm4658myMAlqBhPqwZcsQ9dtQErRIA8vryGFPdMW7/MuYl/tVkV4m/a7QkAMorUNFDAABwORpasyZwTavVlEOAvXrF7OZTWpRNmCE/caAZck3Q+gSAxpdGwyLaaLQkAAIDAC66vPP+VzhltZrxACSew92/Ps7QBgDIfwp8yXBglCHzawCM7/e38TgHICsPh5kEwDLqk7BByqsmu0r8nQAIZA5AuugIwLKv7eIuNhLnF2Eni34m4LTZ8GIxGuJcXwAQP8r1B7+K3hN4szRvjwD4GH6N+/xpewCyriDaP1DmOMYogLAN9p3oXT2cdHMURR6xJgRAIABwDYRy6RGgr+CZ9UzcAV/3DIA/gz9ZHHO8oey3AD777DPgEQCqJywaAKAHdBXg+pneisV1uRP1vN7C3ospAUAAmAJJFZg2Q4C+DBF8shnIdwwF+M+oF/DpxqhFA4As8sFuyB+gHsYXf2Lq2gPQ/nEaW5rH6UsAEABx8fFwtC2YcZ/9JACQjTjQuKUXcJYBAvtsSpIDAI7DI8V9hiGl5UU9vop6OG/tBR9nIJ8sdoD+tPgEAAFQru39HD/MQ7d0o6mLIL8nAYCkQwB+E3/uM+Txf1EvYO+WXTkAIHZNge2GqDHDLePaBc21sLEhAAiAgeJlI+78M2zWqicFwDnnnDMci0mkF3CeIXD/5fDDD599//337/IIANU6ANMcgKchgLwMRQD0CwIuBFIuBbahfpytvPQzbNiwubZ76icFQHRH/wr+CgTq4sqGSbaLMVv+UNEAEPWAXCcBCYABLj4BkA0A3oX2sivPk7jry/p468MFABEEZK39hYaMO2VxECbcZAuvMQaQGe+mFt3fyRgKrTWJEr32ey3s+m8vFlvWEr8naodcprJof7fQYECXXApckJeBtBe8xE72tuuQRT5Y6NJm+yWg/vm5AgCfQDsCAJKJttjn8rLeAeWWdxd8AOAF+JE1EbGH67sAaGSqrzthT8ej0/pga7kKEgDhzAHMRMOI3b8fC066cG7De+nbbLv4pkbiCgDxr/Qh3y2URUyxC5k042kEv/ZloEsw9HjApEFMI9P0bgYRAJ9VkEMA5RAg6evASYPadw9A/KFByqIgWSL8p67l0nwZCPnJVuCyJXjsYdoOzZRemw+GN8OSfpjVVAb2AAZQoNrfBkwaNAOlU969jS9PYRw9Fw3uLteyaQCAvP4GeWn2+XsMgJ2ZtEwAwL8jrbwGHXdsQR5HJs0jaToOAQIZAoTQA5AgxlzAoZgLkCcC8sJQ4kMDAOTVjLw03yPYirvzkUn27os2Xv1IUZF2XMMGhZ1XEwKAAPASUL56AFIY3Jnn4M7s9PlsDQCwH8J4zIn8SinAlWigP1LafmqGutyOuhg/OIry3oB5BvlWQ6YHAUAAeAk4nwBAgWoQmNILmJW0cBoAiG9l91xMO+vq6k6xmTxtbm4euWvXLllsZPwKE8rbAAC0J61v0nQEAAGQNHb2SecZANILmIo7p0wIDrifvqnQWgAgn79FPrea/EW/rwMEGjQQgN/R8CtLl2UXYNMh6xuOTzLEMDk2/U4AEACmGFH97hsAkika0WI0IllYY31oAWBzl5ZCoDwv4c/8cvsNyrcGsZKyEXML0p1XfW/QdZ2BtTglCQgAAsAlfj5NmxIATo3eFjR+uah/JbQAkHTKsvfPYgP+h6yafAt5yaIq6eYfJe60DT9ymNvdX/InAAiAwgIg6gXYdNE/rYsNANDTOBEN+HEkNm1O4kWrfk7mYHJRhjq5HAQAAeAl8JR3UeM6gP6FmTp16hgsVZYJQeOS3dK0NgBw6AW4apfr3Z89AP1XccpdaOuAto0YEHoX0hj37wtlHcBA+uAOfSnu0PL9ApvjBGgiLw2pjuh5vUza1asSuBupPzXunlV5D+wBFL8HoFlFthHBfmKagWLyjUZ6GRrpPQa7xMDUrtvvyz/JslrsTXAkvlB8I+pxmam+Lr+jd9KKXs2tePPy1y5+fKQlAIoPgCdxoeV9+bjjZwDAV30ERFIfmmXVLmvqo6GAwFCz715iIE6ZMuVggQDyif0+YVKdkO4JAOAWPPOXuuR+EAAFBwDurBei4fwYkVJuGNCDgJK31ZbkGU1RF/o9lKHsohfTx0VM5Uewyos7Mh8QOyRCPufhSz6tJn9xvwNot0LXebAxbhuuzQfXsRVluzzpZ8a1+djYEQAFB4BcTMNXbHNZQz5QkEWwGvAjmrLTUNznxbVBCy3OR8MUCJRrmMZvGGjzwlLhcXhFtwlln440VpOQJXm8gX/LF5iWo+H/Upt3VnYEQAUAQIIhalzSLe17q2wT/v0gxrqL81hBVi5AZSiA376LgJdySiPdhAZ0Hxr/D3wFtQwH0E2/CXnIl43G4NyKPNbj7yLTB0GTlEEW92AXovNlURLylMU9pi8aSTadONsAkLuz3uTDpo4EQIUAoO+iygaUhx56aK1mOapNINBWr4AMd7q7u49A4xb4jMGqv9Ho2stmLN2AxBZsk7U+zS/m6ktqtiQAKgwA5ktKCyqgV4AAIAD00ULL4BQgAAiA4IKaFdIrQAAQAPpooWVwChAABEBwQc0K6RUgAAgAfbTQMjgFCAACILigZoX0ChAABIA+WmgZnAIEAAEQXFCzQnoFCAACQB8ttAxOAQKAAAguqFkhvQIEAAGgjxZaBqcAAUAABBfUrJBeAQKAANBHCy2DU4AAIACCC2pWSK8AAUAA6KOFlsEpQAAQAMEFNSukV4AAIAD00ULL4BQgAAiA4IKaFdIrQAAQAPpooWVwChAABEBwQc0K6RUgAAgAfbTQMjgFCAACILigZoX0ChAABIA+WmgZnAIEAAEQXFCzQnoFCAACQB8ttAxOAQKAAAguqFkhvQIEAAGgjxZaBqcAAUAABBfUrJBeAQKAANBHCy2DU4AAIACCC2pWSK8AAUAA6KOFlsEpQAAQAMEFNSukV4AAIAD00ULL4BQgAAiA4IKaFdIrQAAQAPpooWVwChAABEBwQc0K6RUgAAgAfbTQMjgFCAACILigZoX0ClQ1AKZPnz529+7db+rl+ozl2lWrVk12SM+kVCBXBVwBgPZzdHt7++a0KlGTlmPxO23atJNrampeccijAwCY6JCeSalAbgqg8R+EzLfi3D9JIdB2uoYNGzaypaVld5L0mjSpAgACHINCvKUpSBmbTQDA8Q7pmZQK5KZAQ0PDCYMHD/6NQwHeR/x/ziG9MWmqAGhqahq1Z8+eD4ylKG+wHelHr1mz5ncOPpiUCuSiAABwNgDwTNLMe3t7X1+9evW4pOk16VIFgBQAvYAP8WekpjAD2aQ9BkpaLqajAiYFGhsb69GInzXZxfzeiR7AsQ7pjUmzAMDLKMWpxpKUMYCADaBge9L0TEcF8lIAc2CXYRx/j0P+7QBAg0N6Y9IsANCCUpxvLEl5ACwAABYmTc90VCAvBdADWI4bWLND/rcAADc7pDcmzQIAd6AU84wlKW/AR4EO4jFpPgpg6CuT1y/gPCRpCdB7uLitre2hpOk16bIAwNdQkGWawpSz2W+//Y5dsWJFp4sPpqUCWSoAAExCfk+75IneQxN6v20uPkxpUwcAZkLPxEzoOlNBDL/PRVdosaMPJqcCmSmA8f/DuIN/3SHDd/AEbDyegLk8RTNmnzoApASuq6Eg5EvoCp1urA0NqEABFKivr68dPnz42yjKEQ7FWY+b3niH9KqkmQAAkyE/QXfmIlWJBjbaAwhcAAg87uCDSalAJgog3hcg3p0m75B+Prr/t6Vd4EwAgB6A8zwAhNgAIp6StiD0TwVcFJgxY8aInTt3yvsvo138ZPX4OxMAYDx0IsRYi7v4H7mIgrmES1auXPmAiw+mpQJpKoCb3V3wP9cxjxcR65MR6zsd/RiTZwIAKQWEeQR/ZhlLFG/wLMh4AbpG8oIFDypQKAWipb9LUajDHAuW+vP/vvJlBgD0AhrRA1jpKMwg+LgNcwHzXf0wPRXwrQBucvK4W4a7Tgfu/mfh7u/65ExVhswAEM2Mvo9SjVKVLN5oDuYDpEfBgwoUQgE0flnsJoveXI9M34DNDACiCkS6CX++46oQ0r+FnsD16Aks9+CLLqiAkwLo3V6DeFwEJ7VOjpAYfmYjrh919aNNnzUAjkEFH8U4/jRtAWPs/i2CwC88+KILKpBIATzyOx/xLI3/84kclCRCPC9F45+N/9Xr6kubPlMASKFAywtRUV/rmzdhtdRkrJbaoq0w7aiALwWw38U4xJ/0Qr28s5/Vo7/S+mcOAMyUHopJDunieNnrDzCR140XcZGQr7CmH40CGM5eDbvrcB6lsVfY3IN5rSsUdl5NMgeAlB7dpotAu5/4qgkg8F4Egbt9+aQfKjCQAtE+f9LwZdJvqCeV3sVNcVZWM/+59gD6MoeQslNKvScB+9wsHjJkyMLW1tbtnv3SHRUY1NzcPLKnp+cO3Ly+4VmOJbj7uyyVT1ycXHoAUloAYAb+yKIJ55nTfYhWU/MqxmXL8ArxUhD13cTKMCEViBRAj/UkNPqZsggNvc0jfQoDf6/C7ywAYKNPv1pfuQEggsD38Pdb2sJa2sn+Ad+GsI9ZpqM5FdirgKxdqaurm41Geiv+0+XNvjhFc33VPVcA4MMhh2HTzzuhjjz6SOWQ7xKAsOvkrK2tXYeNRf4rlYzoNAgFcLeXTTgnIF4myF+cx6VVMcTmQkxeL0jLv8ZvrgCQAsq4ateuXfIs38ujFEOlt+H3Nlzc5zDpshnnlqFDh27Fhxe6NGLRJiwF5M297u7uIxAPozFsHIsG+ReoYSPOxLtYWyi0bseOHRM7Ojp6LNJ4N80dAFKj6HmqPM4b4b2GOocyaciJQ51WoVjJkvS84m0LoDO+CC+1FQIAElHRo0EZDhwcSoSxHlSgvwJo+HKjm4fG/3wR1CkMAEQMPBm4EX/+vgjCsAxUIAUFtmCYMa9Ii9YKBYAIAmk+GUjhmtIlFVArkOuM/0ClLBwAUMga9ARkpZWcTtsqqS8LDalAigpItx8TzoVcrl5EAOy9FJgTkN2DroN43AcwxeCk69QVWCFvCxZlzN+/toUFgBQUTwfOxuMZ6QlMS/0yMQMq4F+B+6PG/4Z/1348FhoAUsXoG+sCgYv9VJleqEDqCnTJBiHS7cfCs49Sz80hg8IDQOomSzJHjBhxK2gqb2B5fXfAQTsmpQIDKazesH8AAAEqSURBVNCN/zm/Ur5kVREA6FMZk4MToxcyZuL/DWf8UYECKbAZZZGX25bl9WJPEi0qCgAlIJiOfwsEnHdgTSIa01CBEgV+i5vSMtnOCw3/xUpTpiIBEIk8GE8K5BVNAcG5lSY8y1vxCuyWRo9J6qWY4W+v1NpUMgD2al7yyqbsODy2Ui8Ey11RCsi7+7eHsDV9xQOgNGzksSF6BJNxyrfZT62okGJhi66A7GC1FjP7T2OjGVnPH8QRFAD6rkj01EDe5a7HOQVAEBjw6UEQIZtZJWQ2/yV085/D346urq51eb+6m0bNgwRAf6Gi975PxuYj43BBv4hzLKAgwwV5HVTe/c7i/e80rh99uikg+0PIXhDyKngn4qITY/q3EBsbP/744w1o8AKBoI//B/x7nC0M7g6AAAAAAElFTkSuQmCC;" vertex="1" parent="1">
          <mxGeometry x="70" y="130" width="40" height="40" as="geometry" />
        </mxCell>
        <mxCell id="4Eko1OY5xelyAzkIzd4i-7" value="" style="shape=image;verticalLabelPosition=bottom;labelBackgroundColor=default;verticalAlign=top;aspect=fixed;imageAspect=0;image=data:image/png,iVBORw0KGgoAAAANSUhEUgAAAQAAAAEACAYAAABccqhmAAAgAElEQVR4Xu2dDZBW1XnHWVxEFmxRsdKoEQ0atHHUVmb8wHYxICzuMmsi0yCQqhPjt4YRbdGmgqaNVjHYfPgRjdgoaFfDCgtsRqyrUmMiExlLLOpaUZlKK41MXXAjC9v/Q+46L+u+9zznnnM/3vP+78ydRd/nPOec/33O755z7rnn1gzikasC06ZNG11TU/MsCjEu14JUV+ZbUN0enNtwdkH/7b29vZ0438K/5e/G1atXb60GSWqqoZJFrSMa/2QE3AKU74yilrGKy7UJdV+P67MeQHi5rq5ufUtLyyeh6UEA5HRFGxsbv4zAksY/IaciMFs7BaSXtnbw4MFPr1y58mW7pMW1JgByuDbs9ucgur8se9AraMd5O0Cwzp/bfDwRABnrzsafseApZgcItKJHcP2KFSs6U8wmVdcEQKry7usc3f56dPtvxv+tzzBbZpWuAr/FNV0GGCxdtWrVi+lm5d87AeBf0wE9svFnJHR+2WxG1ktxLgMINuZXDLucCQA7vRJZs9ufSLZKTbR1z549l69Zs6a1EipAAKR8lXjnT1ngYrqXtQWLMD+wCPMDHxWziL8vFQGQ4tVh409R3MpwfT/mBxZhUdEbRS0uAZDSlWHjT0nYynO7IoLA80UsOgGQwlVh409B1Ap2KSsJZTjQ1tb2eNGqQQB4viKc8PMsaDjuZAHRTEDgiSJViQDweDV45/coZpiutgAC84rUEyAAPAUaG78nIQN3I8MBVHEeJgYLMSdAAHgIuJS7/X2vrnooKV1EChyBv7U5qrERbxeejrcLu3Isw96sCQDHK5By4x+0e/fuo9vb2zc7FpPJ+ynQ1NQ0Cgt2RuOOLDAYjUm6L+Df9fh3Jm9nynsEGAqcl/eFIQAcrkAW3f4hQ4Yc1Nraut2hmExqoQCu6bECAcBAQCDncRbJrUwBgYWAwAKrRJ6NCYCEgmbR+KVoBEDCC+Qh2bnnnnsM3MzEeQHOEzy43McFANCFXojMB9zn27fWHwGgVarELqvGTwAkuDgpJMH1PgkNVSAwE432SJ9ZwN+r6G3MyusFIgLA8mqmPebvXxzOAVheoBTNp0+fPhbX4/vIYqrnbBYDAHM9+1S5IwBUMv3eKMs7f1+xOASwuEAZmGJYcBCyuQ7nPJxDPWX5LiYhZ+WxwxABoLyCeTR+DgGUFycHM4Dg6ggER3nK/h70Aq7w5EvthgBQSJV1t7+0SBwCKC5QTiZ4lDgBcwMtyH60jyLA1+nYR+AlH760PggAg1J53fk5BNCGcL52iI/z5W0/lOLzriWRbcXwWHA2/PS6+tKmJwBilMq78XMIoA3jfO3QQ7xGNgBBKZxXF8LPbEDg0axqRACUUTrPbj+HAFmFv798MCdwB7zJxKDrsR5zAeNdnWjTEwADKFWUxi9F4xyANpTztauvr68dPnz4GpRikmtJMKQ4BYuDNrj60aQnAPqpVIRuf2mR+BhQE8bFsGloaDgbj/NkZ+DDHEt0C3oBsn186gcBUCJx0Rq/FI0ASL0NeM0AQ4G74NB1Uc+LAMlkrAvY6bVwAzgjACJRitTtL71OHAKk3QT8+o/eMnwTXke6eMZk4ERMBna4+NCkJQCgUhHv/H0Xjz0ATRgXywa9gIUo0d+5lArzAPMxD3Cbiw9N2qoHQFHv/H0Xjz0ATRgXywYTggdgQvA9lGqUQ8nWYR7gLIf0qqRVDYAi3/nZA1DFb2GNcGN5GN34rzsU8B2sDByPlYEfOPgwJq1aABT9zs8egDF2C22AJwLNmMhb7ljIyegFrHX0EZu8KgFQCXd+9gDSDPv0fWMe4Hjk8gLOQ5Lmhh7ExZgIfChpek26qgNAJTV+uYCcBNSEcTFtEGvLMZnX7FC61NcDVBUAKqXbXxownAR0aD45JwUArgIAZAORRAd6AOgAtDUlSqxMVDUAqMTGL9eQAFBGcgHNMAyQZcFPOxRtE+YAZCiR2lEVAKi0bn/p1eYQILXYT91xtDT4maQZoffwOtYCjEuaXpMueABUcuPnHIAmhItrAwCcgCcBv3Eo4fvoAXzOIb0xadAAqPTGTwAY47fQBlOmTDm4trb2fRRy/4QF3TF+/Pg/WLBgwZ6E6Y3JggVACI2fADDGb+ENMA/wDgqZeLegtIeAQQIglMZPABS+fRsLCAC8DaMxRsMyBgSApXIhNX4CwPLiF9CcAMjwooTW+AmADIMnpawIgJSE7e82xMZPAGQUPClmQwCkKG6f61AbPwGQQfCknAUBkLLAITd+AiDl4MnAPQGQosihN34CIMXgycg1AZCS0NXQ+AmAlIInQ7cEQApiV0vjJwBSCJ6MXRIAngWvpsZPAHgOnhzcEQAeRa+2xk8AeAyenFwRAJ6Er8bGTwB4Cp4c3RAAHsSv1sZPAHgInpxdEACOF6CaGz8B4Bg8BUhOADhchErdxsuhyp9Jyi3BfKqZvS9XAKR9/Qv7OnC13/mjUP2orq7usJaWlo+zD13m6EMBVwBU5evAbPyfhl4ntoQ61kcg0kc+ChAAlrqz8e8j2IsAwJmWEtK8QAoQABYXg43/M2ItBwC+YiEhTQumAAGgvCCc8BtQqEcAgDlKCWlWQAVcAVAVk4C88w8cufg67Hn4OmxrAeOaRVIq4AqA4CcB2fjLRtJr3d3df/7MM8/8rzLWaFZABQiAmIvCxh8bsfeh+39ZAWOaRbJQgAAoIxbH/MYomgMAPGK0okGhFXAFQJBzALzzG2P2CSwAmoUFQJ8YLWlQaAVcARDcHAAbvzFeP8ZnoWfhs9DLjZY0KLwCBEDJJWK3XxWvHej6T1RZ0qjwCrgCIJghABu/KlZ78Eno0/FJ6PUqaxoVXgECAJcIIkzCn5txTij8FcuvgP+Nxn89Gv9P8ysCc/atgCsAKn4OoKmp6RwsaJHGf4ZvcUPyh8Z/Axr/HSHViXXZe/Or3o+DovGPQuN/AYEwjsEQq8ATO3bsmNnR0dFDncJSwBUAFT0HEM34PxvWJfVamw/hbREgeSeW/P7Oq2c6K4QCrgCo6CEAARAbg5vw652Y8X+wEJHKQqSiAAHQ28sewGdDqxP/63I0/rWpRB2dFkYBVwBwCFCYS+mlIALDR7HKbym3+fKiZ+GduAKAQ4DCX2JVAbdgdd+DtbW1i1tbW7erUtAoCAVcAcAeQOWGwQY0+jZM8D2Jx3sbKrcaLLmLAgSA2xzAOjwfr5RJsq0IlK0o7zbM6G9xCRqmDUcBAsANAEswUXZROOHAmlSbAq4AqPY5AAKg2lpMYPUlANgDCCykWR0bBQgAAsAmXmgbmAIEAAEQWEizOjYKEAAEgE280DYwBQgAAiCwkGZ1bBQgAAgAm3ihbWAKEAAEQGAhzerYKEAAEAA28ULbwBQgAAiAwEKa1bFRgAAgAGzihbaBKUAAEACBhTSrY6MAAUAA2MQLbQNTgAAgAAILaVbHRgECgACwiRfaBqYAAUAABBbSrI6NAgQAAWATL7QNTAECgAAILKRZHRsFCAACwCZeaBuYAgQAARBYSLM6NgoQAASATbzQNjAFCAACILCQZnVsFCAACACbeKFtYAoQAARAYCHN6tgoQAAQADbxQtvAFCAACIDAQprVsVGAACAAbOKFtoEpQAAQAIGFNKtjowABQADYxAttA1OAACAAAgtpVsdGAQKAALCJF9oGpgABQAAEFtKsjo0CBAABYBMvtA1MAQKAAAgspFkdGwUIAALAJl5oG5gCBAABEFhIszo2ChAABIBNvNA2MAUIAAIgsJBmdWwUIAAIAJt4oW1gChAABEBgIc3q2ChAABAANvFC28AUIAAIgMBCmtWxUYAAIABs4oW2gSlAABAAgYV0ttWZNm3a6D179hyAY3tra+v2bHN3z40AqBAANDc3j/zkk09Oq6mp+RLOEbaXvre3twvnNpzb99tvv+09PT2b29vbN9v60dijUUxFGWfB9ks4paydyPepnTt3PtDR0dGj8aGxQT6XIZ+/hO0YnNtwvjR48OCFK1eulH97PZqamkahoc9Gfn+Cukh+ch6B84CSjLrw7y3RuQl/n9qxYweq7K/OXisFZwRABQAAgf4NBN4duF4jPQeAAKAD588RqE+4Bmp9fX3t8OHDfwx/F5Yp50Y0nsmrV6/e6lqPxsbGlfDVOICfbQDc6StWrOh0zUPSo4EIcK9EXlKn0saudS91fQzweHzNmjUvaRNlZUcAFBwADQ0Np+Gu9osMAkJgcDdAcC9A0J0kPwTTt5Due4a0m9CYJrpAAEC8EI3yoZh81q5atWpykjr0pUEepyKPW/HfU1389Eu7ZMiQIXOLNFQgAAoOAFygFgTR+R6D0ORqI+6g59neQWWIsmvXrrfhXNNL6UADnWgqSLnfNZrU1dUd2NLSIl1y6wP+r0OiG3EebJ3YnOBFgOW+tra2fzabpm9BABQfAP+BMBiXfijsk4PMF8zEXbpNm290x3xZaw//l8P/vVr7UjsE7Sv475Pj0sL/KfC/wdY/fM9GGuld1NqmtbFH+S5C+ZbYpEnDlgAoPgB607jwCp9vYegxDxNqrQrbQRiTX4ugXqyxjWx+jXHxHIyLX7NIs9cUQfsh/sT2NGwBMGnSpD/cf//9b8Td+Qbb8iS034y8rkdP4ImE6b0kIwAIgLhA2ho1JOOkHQCwALY3W0blP2AocJNlmlQAgB5MIxrkStuyONpvBQTHA4Ly5CCXgwAgAEyB9yM00itNRgkB8C6gMQdd4edN/kt/990DQOM/Cr2dx1CW02zK4cMW0PkhegFX+fCVxAcBQACY4kYWt8wGBFbFGSYEgLi8H64vNRUiTQCgEXwN/pfZlCGylTu3PO+Xv2NwyrqAsZZ+evBk4NC8ngwQAOEAYPLu3bvLPvvGzP5Y3G3G4S73BQTohTg1s/V7YxnpcJNqa0oJADvhfzb8L9c2HJ89gGjtgky0ahvudpT3XnTd7x7oUSZ6EyejN3EpdL5MWx/4Oj2vNQIEQCAAwF20Rhtw0ao2WVgkINAc3VgfcFDc+gCHHoDk/zM0mjmYcNypKYxPACjWFJQWaSvKORHllLt+7IEyToKBQM24ahOwGA+YrDf5TON3AqAKAdAXSLj4/4R/X60JLARpU9xjQUcASC/jm+gFyCpC4+ETAPD1LDKsN2Y6aFAXGv94TePv8wXQTsDdfY0BAka4KsqW2IQAqGIAzJgxYwTW58uze+M6AzTQhWigC8pFmisA4Pf52tra2U899dR7pmj2BQCU+SSA7ZfIb6gpT9T/RtT/uya7/r8jj0uQh6Q7ZKC0+O1agFVAnMtBAFQxACTiEACydFeW8MYeCNR/RKD+dYoAkF6AqpH5AkDUTX/aVHf83o36H510+XL0iPGn8FM67yIvRf0AQ6vrXd/BUJS/rAkBQABcgej4oSmI0DgfwB3wkjQBAN+vyRt3mBCTlX5xQetlIZDy3QUph9PSZXGAycYDDjzwwFNRv1Pxn9swnFhvM5wwXZ+kvxMAVQ4AdFHrcXeTcbDpiG0EHoYAe/NHWe7CnVbW4qcOAJT5Hs1sPeB3G+A33yRQJf5OAOiCv9y1XYLZ94vSvPC4QKqlwDZPAUrLG734cqeiDvcgD+ktDHh4BMD/IIPZgEDZrrnHIcA65HWmqe4AwMUAQNzbhyYXhf2dACAA5IUc40IcNILvoBF82xEAjyC9bBIS+yIPfo99nVcTtCjvRJS3w9CTUD0BKMqLO2lQRKNlXL5YxHRQmouY1M+2k4hj0f0NsgcQrQeQ8basYIs90Ajm4658myMAlqBhPqwZcsQ9dtQErRIA8vryGFPdMW7/MuYl/tVkV4m/a7QkAMorUNFDAABwORpasyZwTavVlEOAvXrF7OZTWpRNmCE/caAZck3Q+gSAxpdGwyLaaLQkAAIDAC66vPP+VzhltZrxACSew92/Ps7QBgDIfwp8yXBglCHzawCM7/e38TgHICsPh5kEwDLqk7BByqsmu0r8nQAIZA5AuugIwLKv7eIuNhLnF2Eni34m4LTZ8GIxGuJcXwAQP8r1B7+K3hN4szRvjwD4GH6N+/xpewCyriDaP1DmOMYogLAN9p3oXT2cdHMURR6xJgRAIABwDYRy6RGgr+CZ9UzcAV/3DIA/gz9ZHHO8oey3AD777DPgEQCqJywaAKAHdBXg+pneisV1uRP1vN7C3ospAUAAmAJJFZg2Q4C+DBF8shnIdwwF+M+oF/DpxqhFA4As8sFuyB+gHsYXf2Lq2gPQ/nEaW5rH6UsAEABx8fFwtC2YcZ/9JACQjTjQuKUXcJYBAvtsSpIDAI7DI8V9hiGl5UU9vop6OG/tBR9nIJ8sdoD+tPgEAAFQru39HD/MQ7d0o6mLIL8nAYCkQwB+E3/uM+Txf1EvYO+WXTkAIHZNge2GqDHDLePaBc21sLEhAAiAgeJlI+78M2zWqicFwDnnnDMci0mkF3CeIXD/5fDDD599//337/IIANU6ANMcgKchgLwMRQD0CwIuBFIuBbahfpytvPQzbNiwubZ76icFQHRH/wr+CgTq4sqGSbaLMVv+UNEAEPWAXCcBCYABLj4BkA0A3oX2sivPk7jry/p468MFABEEZK39hYaMO2VxECbcZAuvMQaQGe+mFt3fyRgKrTWJEr32ey3s+m8vFlvWEr8naodcprJof7fQYECXXApckJeBtBe8xE72tuuQRT5Y6NJm+yWg/vm5AgCfQDsCAJKJttjn8rLeAeWWdxd8AOAF+JE1EbGH67sAaGSqrzthT8ej0/pga7kKEgDhzAHMRMOI3b8fC066cG7De+nbbLv4pkbiCgDxr/Qh3y2URUyxC5k042kEv/ZloEsw9HjApEFMI9P0bgYRAJ9VkEMA5RAg6evASYPadw9A/KFByqIgWSL8p67l0nwZCPnJVuCyJXjsYdoOzZRemw+GN8OSfpjVVAb2AAZQoNrfBkwaNAOlU969jS9PYRw9Fw3uLteyaQCAvP4GeWn2+XsMgJ2ZtEwAwL8jrbwGHXdsQR5HJs0jaToOAQIZAoTQA5AgxlzAoZgLkCcC8sJQ4kMDAOTVjLw03yPYirvzkUn27os2Xv1IUZF2XMMGhZ1XEwKAAPASUL56AFIY3Jnn4M7s9PlsDQCwH8J4zIn8SinAlWigP1LafmqGutyOuhg/OIry3oB5BvlWQ6YHAUAAeAk4nwBAgWoQmNILmJW0cBoAiG9l91xMO+vq6k6xmTxtbm4euWvXLllsZPwKE8rbAAC0J61v0nQEAAGQNHb2SecZANILmIo7p0wIDrifvqnQWgAgn79FPrea/EW/rwMEGjQQgN/R8CtLl2UXYNMh6xuOTzLEMDk2/U4AEACmGFH97hsAkika0WI0IllYY31oAWBzl5ZCoDwv4c/8cvsNyrcGsZKyEXML0p1XfW/QdZ2BtTglCQgAAsAlfj5NmxIATo3eFjR+uah/JbQAkHTKsvfPYgP+h6yafAt5yaIq6eYfJe60DT9ymNvdX/InAAiAwgIg6gXYdNE/rYsNANDTOBEN+HEkNm1O4kWrfk7mYHJRhjq5HAQAAeAl8JR3UeM6gP6FmTp16hgsVZYJQeOS3dK0NgBw6AW4apfr3Z89AP1XccpdaOuAto0YEHoX0hj37wtlHcBA+uAOfSnu0PL9ApvjBGgiLw2pjuh5vUza1asSuBupPzXunlV5D+wBFL8HoFlFthHBfmKagWLyjUZ6GRrpPQa7xMDUrtvvyz/JslrsTXAkvlB8I+pxmam+Lr+jd9KKXs2tePPy1y5+fKQlAIoPgCdxoeV9+bjjZwDAV30ERFIfmmXVLmvqo6GAwFCz715iIE6ZMuVggQDyif0+YVKdkO4JAOAWPPOXuuR+EAAFBwDurBei4fwYkVJuGNCDgJK31ZbkGU1RF/o9lKHsohfTx0VM5Uewyos7Mh8QOyRCPufhSz6tJn9xvwNot0LXebAxbhuuzQfXsRVluzzpZ8a1+djYEQAFB4BcTMNXbHNZQz5QkEWwGvAjmrLTUNznxbVBCy3OR8MUCJRrmMZvGGjzwlLhcXhFtwlln440VpOQJXm8gX/LF5iWo+H/Upt3VnYEQAUAQIIhalzSLe17q2wT/v0gxrqL81hBVi5AZSiA376LgJdySiPdhAZ0Hxr/D3wFtQwH0E2/CXnIl43G4NyKPNbj7yLTB0GTlEEW92AXovNlURLylMU9pi8aSTadONsAkLuz3uTDpo4EQIUAoO+iygaUhx56aK1mOapNINBWr4AMd7q7u49A4xb4jMGqv9Ho2stmLN2AxBZsk7U+zS/m6ktqtiQAKgwA5ktKCyqgV4AAIAD00ULL4BQgAAiA4IKaFdIrQAAQAPpooWVwChAABEBwQc0K6RUgAAgAfbTQMjgFCAACILigZoX0ChAABIA+WmgZnAIEAAEQXFCzQnoFCAACQB8ttAxOAQKAAAguqFkhvQIEAAGgjxZaBqcAAUAABBfUrJBeAQKAANBHCy2DU4AAIACCC2pWSK8AAUAA6KOFlsEpQAAQAMEFNSukV4AAIAD00ULL4BQgAAiA4IKaFdIrQAAQAPpooWVwChAABEBwQc0K6RUgAAgAfbTQMjgFCAACILigZoX0ChAABIA+WmgZnAIEAAEQXFCzQnoFCAACQB8ttAxOAQKAAAguqFkhvQIEAAGgjxZaBqcAAUAABBfUrJBeAQKAANBHCy2DU4AAIACCC2pWSK8AAUAA6KOFlsEpQAAQAMEFNSukV4AAIAD00ULL4BQgAAiA4IKaFdIrQAAQAPpooWVwChAABEBwQc0K6RUgAAgAfbTQMjgFCAACILigZoX0ClQ1AKZPnz529+7db+rl+ozl2lWrVk12SM+kVCBXBVwBgPZzdHt7++a0KlGTlmPxO23atJNrampeccijAwCY6JCeSalAbgqg8R+EzLfi3D9JIdB2uoYNGzaypaVld5L0mjSpAgACHINCvKUpSBmbTQDA8Q7pmZQK5KZAQ0PDCYMHD/6NQwHeR/x/ziG9MWmqAGhqahq1Z8+eD4ylKG+wHelHr1mz5ncOPpiUCuSiAABwNgDwTNLMe3t7X1+9evW4pOk16VIFgBQAvYAP8WekpjAD2aQ9BkpaLqajAiYFGhsb69GInzXZxfzeiR7AsQ7pjUmzAMDLKMWpxpKUMYCADaBge9L0TEcF8lIAc2CXYRx/j0P+7QBAg0N6Y9IsANCCUpxvLEl5ACwAABYmTc90VCAvBdADWI4bWLND/rcAADc7pDcmzQIAd6AU84wlKW/AR4EO4jFpPgpg6CuT1y/gPCRpCdB7uLitre2hpOk16bIAwNdQkGWawpSz2W+//Y5dsWJFp4sPpqUCWSoAAExCfk+75IneQxN6v20uPkxpUwcAZkLPxEzoOlNBDL/PRVdosaMPJqcCmSmA8f/DuIN/3SHDd/AEbDyegLk8RTNmnzoApASuq6Eg5EvoCp1urA0NqEABFKivr68dPnz42yjKEQ7FWY+b3niH9KqkmQAAkyE/QXfmIlWJBjbaAwhcAAg87uCDSalAJgog3hcg3p0m75B+Prr/t6Vd4EwAgB6A8zwAhNgAIp6StiD0TwVcFJgxY8aInTt3yvsvo138ZPX4OxMAYDx0IsRYi7v4H7mIgrmES1auXPmAiw+mpQJpKoCb3V3wP9cxjxcR65MR6zsd/RiTZwIAKQWEeQR/ZhlLFG/wLMh4AbpG8oIFDypQKAWipb9LUajDHAuW+vP/vvJlBgD0AhrRA1jpKMwg+LgNcwHzXf0wPRXwrQBucvK4W4a7Tgfu/mfh7u/65ExVhswAEM2Mvo9SjVKVLN5oDuYDpEfBgwoUQgE0flnsJoveXI9M34DNDACiCkS6CX++46oQ0r+FnsD16Aks9+CLLqiAkwLo3V6DeFwEJ7VOjpAYfmYjrh919aNNnzUAjkEFH8U4/jRtAWPs/i2CwC88+KILKpBIATzyOx/xLI3/84kclCRCPC9F45+N/9Xr6kubPlMASKFAywtRUV/rmzdhtdRkrJbaoq0w7aiALwWw38U4xJ/0Qr28s5/Vo7/S+mcOAMyUHopJDunieNnrDzCR140XcZGQr7CmH40CGM5eDbvrcB6lsVfY3IN5rSsUdl5NMgeAlB7dpotAu5/4qgkg8F4Egbt9+aQfKjCQAtE+f9LwZdJvqCeV3sVNcVZWM/+59gD6MoeQslNKvScB+9wsHjJkyMLW1tbtnv3SHRUY1NzcPLKnp+cO3Ly+4VmOJbj7uyyVT1ycXHoAUloAYAb+yKIJ55nTfYhWU/MqxmXL8ArxUhD13cTKMCEViBRAj/UkNPqZsggNvc0jfQoDf6/C7ywAYKNPv1pfuQEggsD38Pdb2sJa2sn+Ad+GsI9ZpqM5FdirgKxdqaurm41Geiv+0+XNvjhFc33VPVcA4MMhh2HTzzuhjjz6SOWQ7xKAsOvkrK2tXYeNRf4rlYzoNAgFcLeXTTgnIF4myF+cx6VVMcTmQkxeL0jLv8ZvrgCQAsq4ateuXfIs38ujFEOlt+H3Nlzc5zDpshnnlqFDh27Fhxe6NGLRJiwF5M297u7uIxAPozFsHIsG+ReoYSPOxLtYWyi0bseOHRM7Ojp6LNJ4N80dAFKj6HmqPM4b4b2GOocyaciJQ51WoVjJkvS84m0LoDO+CC+1FQIAElHRo0EZDhwcSoSxHlSgvwJo+HKjm4fG/3wR1CkMAEQMPBm4EX/+vgjCsAxUIAUFtmCYMa9Ii9YKBYAIAmk+GUjhmtIlFVArkOuM/0ClLBwAUMga9ARkpZWcTtsqqS8LDalAigpItx8TzoVcrl5EAOy9FJgTkN2DroN43AcwxeCk69QVWCFvCxZlzN+/toUFgBQUTwfOxuMZ6QlMS/0yMQMq4F+B+6PG/4Z/1348FhoAUsXoG+sCgYv9VJleqEDqCnTJBiHS7cfCs49Sz80hg8IDQOomSzJHjBhxK2gqb2B5fXfAQTsmpQIDKazesH8AAAEqSURBVNCN/zm/Ur5kVREA6FMZk4MToxcyZuL/DWf8UYECKbAZZZGX25bl9WJPEi0qCgAlIJiOfwsEnHdgTSIa01CBEgV+i5vSMtnOCw3/xUpTpiIBEIk8GE8K5BVNAcG5lSY8y1vxCuyWRo9J6qWY4W+v1NpUMgD2al7yyqbsODy2Ui8Ey11RCsi7+7eHsDV9xQOgNGzksSF6BJNxyrfZT62okGJhi66A7GC1FjP7T2OjGVnPH8QRFAD6rkj01EDe5a7HOQVAEBjw6UEQIZtZJWQ2/yV085/D346urq51eb+6m0bNgwRAf6Gi975PxuYj43BBv4hzLKAgwwV5HVTe/c7i/e80rh99uikg+0PIXhDyKngn4qITY/q3EBsbP/744w1o8AKBoI//B/x7nC0M7g6AAAAAAElFTkSuQmCC;" vertex="1" parent="1">
          <mxGeometry x="60" y="190" width="40" height="40" as="geometry" />
        </mxCell>
        <mxCell id="4Eko1OY5xelyAzkIzd4i-8" value="" style="shape=image;verticalLabelPosition=bottom;labelBackgroundColor=default;verticalAlign=top;aspect=fixed;imageAspect=0;image=data:image/png,iVBORw0KGgoAAAANSUhEUgAAAQAAAAEACAYAAABccqhmAAAgAElEQVR4Xu2dDZBW1XnHWVxEFmxRsdKoEQ0atHHUVmb8wHYxICzuMmsi0yCQqhPjt4YRbdGmgqaNVjHYfPgRjdgoaFfDCgtsRqyrUmMiExlLLOpaUZlKK41MXXAjC9v/Q+46L+u+9zznnnM/3vP+78ydRd/nPOec/33O755z7rnn1gzikasC06ZNG11TU/MsCjEu14JUV+ZbUN0enNtwdkH/7b29vZ0438K/5e/G1atXb60GSWqqoZJFrSMa/2QE3AKU74yilrGKy7UJdV+P67MeQHi5rq5ufUtLyyeh6UEA5HRFGxsbv4zAksY/IaciMFs7BaSXtnbw4MFPr1y58mW7pMW1JgByuDbs9ucgur8se9AraMd5O0Cwzp/bfDwRABnrzsafseApZgcItKJHcP2KFSs6U8wmVdcEQKry7usc3f56dPtvxv+tzzBbZpWuAr/FNV0GGCxdtWrVi+lm5d87AeBf0wE9svFnJHR+2WxG1ktxLgMINuZXDLucCQA7vRJZs9ufSLZKTbR1z549l69Zs6a1EipAAKR8lXjnT1ngYrqXtQWLMD+wCPMDHxWziL8vFQGQ4tVh409R3MpwfT/mBxZhUdEbRS0uAZDSlWHjT0nYynO7IoLA80UsOgGQwlVh409B1Ap2KSsJZTjQ1tb2eNGqQQB4viKc8PMsaDjuZAHRTEDgiSJViQDweDV45/coZpiutgAC84rUEyAAPAUaG78nIQN3I8MBVHEeJgYLMSdAAHgIuJS7/X2vrnooKV1EChyBv7U5qrERbxeejrcLu3Isw96sCQDHK5By4x+0e/fuo9vb2zc7FpPJ+ynQ1NQ0Cgt2RuOOLDAYjUm6L+Df9fh3Jm9nynsEGAqcl/eFIQAcrkAW3f4hQ4Yc1Nraut2hmExqoQCu6bECAcBAQCDncRbJrUwBgYWAwAKrRJ6NCYCEgmbR+KVoBEDCC+Qh2bnnnnsM3MzEeQHOEzy43McFANCFXojMB9zn27fWHwGgVarELqvGTwAkuDgpJMH1PgkNVSAwE432SJ9ZwN+r6G3MyusFIgLA8mqmPebvXxzOAVheoBTNp0+fPhbX4/vIYqrnbBYDAHM9+1S5IwBUMv3eKMs7f1+xOASwuEAZmGJYcBCyuQ7nPJxDPWX5LiYhZ+WxwxABoLyCeTR+DgGUFycHM4Dg6ggER3nK/h70Aq7w5EvthgBQSJV1t7+0SBwCKC5QTiZ4lDgBcwMtyH60jyLA1+nYR+AlH760PggAg1J53fk5BNCGcL52iI/z5W0/lOLzriWRbcXwWHA2/PS6+tKmJwBilMq78XMIoA3jfO3QQ7xGNgBBKZxXF8LPbEDg0axqRACUUTrPbj+HAFmFv798MCdwB7zJxKDrsR5zAeNdnWjTEwADKFWUxi9F4xyANpTztauvr68dPnz4GpRikmtJMKQ4BYuDNrj60aQnAPqpVIRuf2mR+BhQE8bFsGloaDgbj/NkZ+DDHEt0C3oBsn186gcBUCJx0Rq/FI0ASL0NeM0AQ4G74NB1Uc+LAMlkrAvY6bVwAzgjACJRitTtL71OHAKk3QT8+o/eMnwTXke6eMZk4ERMBna4+NCkJQCgUhHv/H0Xjz0ATRgXywa9gIUo0d+5lArzAPMxD3Cbiw9N2qoHQFHv/H0Xjz0ATRgXywYTggdgQvA9lGqUQ8nWYR7gLIf0qqRVDYAi3/nZA1DFb2GNcGN5GN34rzsU8B2sDByPlYEfOPgwJq1aABT9zs8egDF2C22AJwLNmMhb7ljIyegFrHX0EZu8KgFQCXd+9gDSDPv0fWMe4Hjk8gLOQ5Lmhh7ExZgIfChpek26qgNAJTV+uYCcBNSEcTFtEGvLMZnX7FC61NcDVBUAKqXbXxownAR0aD45JwUArgIAZAORRAd6AOgAtDUlSqxMVDUAqMTGL9eQAFBGcgHNMAyQZcFPOxRtE+YAZCiR2lEVAKi0bn/p1eYQILXYT91xtDT4maQZoffwOtYCjEuaXpMueABUcuPnHIAmhItrAwCcgCcBv3Eo4fvoAXzOIb0xadAAqPTGTwAY47fQBlOmTDm4trb2fRRy/4QF3TF+/Pg/WLBgwZ6E6Y3JggVACI2fADDGb+ENMA/wDgqZeLegtIeAQQIglMZPABS+fRsLCAC8DaMxRsMyBgSApXIhNX4CwPLiF9CcAMjwooTW+AmADIMnpawIgJSE7e82xMZPAGQUPClmQwCkKG6f61AbPwGQQfCknAUBkLLAITd+AiDl4MnAPQGQosihN34CIMXgycg1AZCS0NXQ+AmAlIInQ7cEQApiV0vjJwBSCJ6MXRIAngWvpsZPAHgOnhzcEQAeRa+2xk8AeAyenFwRAJ6Er8bGTwB4Cp4c3RAAHsSv1sZPAHgInpxdEACOF6CaGz8B4Bg8BUhOADhchErdxsuhyp9Jyi3BfKqZvS9XAKR9/Qv7OnC13/mjUP2orq7usJaWlo+zD13m6EMBVwBU5evAbPyfhl4ntoQ61kcg0kc+ChAAlrqz8e8j2IsAwJmWEtK8QAoQABYXg43/M2ItBwC+YiEhTQumAAGgvCCc8BtQqEcAgDlKCWlWQAVcAVAVk4C88w8cufg67Hn4OmxrAeOaRVIq4AqA4CcB2fjLRtJr3d3df/7MM8/8rzLWaFZABQiAmIvCxh8bsfeh+39ZAWOaRbJQgAAoIxbH/MYomgMAPGK0okGhFXAFQJBzALzzG2P2CSwAmoUFQJ8YLWlQaAVcARDcHAAbvzFeP8ZnoWfhs9DLjZY0KLwCBEDJJWK3XxWvHej6T1RZ0qjwCrgCIJghABu/KlZ78Eno0/FJ6PUqaxoVXgECAJcIIkzCn5txTij8FcuvgP+Nxn89Gv9P8ysCc/atgCsAKn4OoKmp6RwsaJHGf4ZvcUPyh8Z/Axr/HSHViXXZe/Or3o+DovGPQuN/AYEwjsEQq8ATO3bsmNnR0dFDncJSwBUAFT0HEM34PxvWJfVamw/hbREgeSeW/P7Oq2c6K4QCrgCo6CEAARAbg5vw652Y8X+wEJHKQqSiAAHQ28sewGdDqxP/63I0/rWpRB2dFkYBVwBwCFCYS+mlIALDR7HKbym3+fKiZ+GduAKAQ4DCX2JVAbdgdd+DtbW1i1tbW7erUtAoCAVcAcAeQOWGwQY0+jZM8D2Jx3sbKrcaLLmLAgSA2xzAOjwfr5RJsq0IlK0o7zbM6G9xCRqmDUcBAsANAEswUXZROOHAmlSbAq4AqPY5AAKg2lpMYPUlANgDCCykWR0bBQgAAsAmXmgbmAIEAAEQWEizOjYKEAAEgE280DYwBQgAAiCwkGZ1bBQgAAgAm3ihbWAKEAAEQGAhzerYKEAAEAA28ULbwBQgAAiAwEKa1bFRgAAgAGzihbaBKUAAEACBhTSrY6MAAUAA2MQLbQNTgAAgAAILaVbHRgECgACwiRfaBqYAAUAABBbSrI6NAgQAAWATL7QNTAECgAAILKRZHRsFCAACwCZeaBuYAgQAARBYSLM6NgoQAASATbzQNjAFCAACILCQZnVsFCAACACbeKFtYAoQAARAYCHN6tgoQAAQADbxQtvAFCAACIDAQprVsVGAACAAbOKFtoEpQAAQAIGFNKtjowABQADYxAttA1OAACAAAgtpVsdGAQKAALCJF9oGpgABQAAEFtKsjo0CBAABYBMvtA1MAQKAAAgspFkdGwUIAALAJl5oG5gCBAABEFhIszo2ChAABIBNvNA2MAUIAAIgsJBmdWwUIAAIAJt4oW1gChAABEBgIc3q2ChAABAANvFC28AUIAAIgMBCmtWxUYAAIABs4oW2gSlAABAAgYV0ttWZNm3a6D179hyAY3tra+v2bHN3z40AqBAANDc3j/zkk09Oq6mp+RLOEbaXvre3twvnNpzb99tvv+09PT2b29vbN9v60dijUUxFGWfB9ks4paydyPepnTt3PtDR0dGj8aGxQT6XIZ+/hO0YnNtwvjR48OCFK1eulH97PZqamkahoc9Gfn+Cukh+ch6B84CSjLrw7y3RuQl/n9qxYweq7K/OXisFZwRABQAAgf4NBN4duF4jPQeAAKAD588RqE+4Bmp9fX3t8OHDfwx/F5Yp50Y0nsmrV6/e6lqPxsbGlfDVOICfbQDc6StWrOh0zUPSo4EIcK9EXlKn0saudS91fQzweHzNmjUvaRNlZUcAFBwADQ0Np+Gu9osMAkJgcDdAcC9A0J0kPwTTt5Due4a0m9CYJrpAAEC8EI3yoZh81q5atWpykjr0pUEepyKPW/HfU1389Eu7ZMiQIXOLNFQgAAoOAFygFgTR+R6D0ORqI+6g59neQWWIsmvXrrfhXNNL6UADnWgqSLnfNZrU1dUd2NLSIl1y6wP+r0OiG3EebJ3YnOBFgOW+tra2fzabpm9BABQfAP+BMBiXfijsk4PMF8zEXbpNm290x3xZaw//l8P/vVr7UjsE7Sv475Pj0sL/KfC/wdY/fM9GGuld1NqmtbFH+S5C+ZbYpEnDlgAoPgB607jwCp9vYegxDxNqrQrbQRiTX4ugXqyxjWx+jXHxHIyLX7NIs9cUQfsh/sT2NGwBMGnSpD/cf//9b8Td+Qbb8iS034y8rkdP4ImE6b0kIwAIgLhA2ho1JOOkHQCwALY3W0blP2AocJNlmlQAgB5MIxrkStuyONpvBQTHA4Ly5CCXgwAgAEyB9yM00itNRgkB8C6gMQdd4edN/kt/990DQOM/Cr2dx1CW02zK4cMW0PkhegFX+fCVxAcBQACY4kYWt8wGBFbFGSYEgLi8H64vNRUiTQCgEXwN/pfZlCGylTu3PO+Xv2NwyrqAsZZ+evBk4NC8ngwQAOEAYPLu3bvLPvvGzP5Y3G3G4S73BQTohTg1s/V7YxnpcJNqa0oJADvhfzb8L9c2HJ89gGjtgky0ahvudpT3XnTd7x7oUSZ6EyejN3EpdL5MWx/4Oj2vNQIEQCAAwF20Rhtw0ao2WVgkINAc3VgfcFDc+gCHHoDk/zM0mjmYcNypKYxPACjWFJQWaSvKORHllLt+7IEyToKBQM24ahOwGA+YrDf5TON3AqAKAdAXSLj4/4R/X60JLARpU9xjQUcASC/jm+gFyCpC4+ETAPD1LDKsN2Y6aFAXGv94TePv8wXQTsDdfY0BAka4KsqW2IQAqGIAzJgxYwTW58uze+M6AzTQhWigC8pFmisA4Pf52tra2U899dR7pmj2BQCU+SSA7ZfIb6gpT9T/RtT/uya7/r8jj0uQh6Q7ZKC0+O1agFVAnMtBAFQxACTiEACydFeW8MYeCNR/RKD+dYoAkF6AqpH5AkDUTX/aVHf83o36H510+XL0iPGn8FM67yIvRf0AQ6vrXd/BUJS/rAkBQABcgej4oSmI0DgfwB3wkjQBAN+vyRt3mBCTlX5xQetlIZDy3QUph9PSZXGAycYDDjzwwFNRv1Pxn9swnFhvM5wwXZ+kvxMAVQ4AdFHrcXeTcbDpiG0EHoYAe/NHWe7CnVbW4qcOAJT5Hs1sPeB3G+A33yRQJf5OAOiCv9y1XYLZ94vSvPC4QKqlwDZPAUrLG734cqeiDvcgD+ktDHh4BMD/IIPZgEDZrrnHIcA65HWmqe4AwMUAQNzbhyYXhf2dACAA5IUc40IcNILvoBF82xEAjyC9bBIS+yIPfo99nVcTtCjvRJS3w9CTUD0BKMqLO2lQRKNlXL5YxHRQmouY1M+2k4hj0f0NsgcQrQeQ8basYIs90Ajm4658myMAlqBhPqwZcsQ9dtQErRIA8vryGFPdMW7/MuYl/tVkV4m/a7QkAMorUNFDAABwORpasyZwTavVlEOAvXrF7OZTWpRNmCE/caAZck3Q+gSAxpdGwyLaaLQkAAIDAC66vPP+VzhltZrxACSew92/Ps7QBgDIfwp8yXBglCHzawCM7/e38TgHICsPh5kEwDLqk7BByqsmu0r8nQAIZA5AuugIwLKv7eIuNhLnF2Eni34m4LTZ8GIxGuJcXwAQP8r1B7+K3hN4szRvjwD4GH6N+/xpewCyriDaP1DmOMYogLAN9p3oXT2cdHMURR6xJgRAIABwDYRy6RGgr+CZ9UzcAV/3DIA/gz9ZHHO8oey3AD777DPgEQCqJywaAKAHdBXg+pneisV1uRP1vN7C3ospAUAAmAJJFZg2Q4C+DBF8shnIdwwF+M+oF/DpxqhFA4As8sFuyB+gHsYXf2Lq2gPQ/nEaW5rH6UsAEABx8fFwtC2YcZ/9JACQjTjQuKUXcJYBAvtsSpIDAI7DI8V9hiGl5UU9vop6OG/tBR9nIJ8sdoD+tPgEAAFQru39HD/MQ7d0o6mLIL8nAYCkQwB+E3/uM+Txf1EvYO+WXTkAIHZNge2GqDHDLePaBc21sLEhAAiAgeJlI+78M2zWqicFwDnnnDMci0mkF3CeIXD/5fDDD599//337/IIANU6ANMcgKchgLwMRQD0CwIuBFIuBbahfpytvPQzbNiwubZ76icFQHRH/wr+CgTq4sqGSbaLMVv+UNEAEPWAXCcBCYABLj4BkA0A3oX2sivPk7jry/p468MFABEEZK39hYaMO2VxECbcZAuvMQaQGe+mFt3fyRgKrTWJEr32ey3s+m8vFlvWEr8naodcprJof7fQYECXXApckJeBtBe8xE72tuuQRT5Y6NJm+yWg/vm5AgCfQDsCAJKJttjn8rLeAeWWdxd8AOAF+JE1EbGH67sAaGSqrzthT8ej0/pga7kKEgDhzAHMRMOI3b8fC066cG7De+nbbLv4pkbiCgDxr/Qh3y2URUyxC5k042kEv/ZloEsw9HjApEFMI9P0bgYRAJ9VkEMA5RAg6evASYPadw9A/KFByqIgWSL8p67l0nwZCPnJVuCyJXjsYdoOzZRemw+GN8OSfpjVVAb2AAZQoNrfBkwaNAOlU969jS9PYRw9Fw3uLteyaQCAvP4GeWn2+XsMgJ2ZtEwAwL8jrbwGHXdsQR5HJs0jaToOAQIZAoTQA5AgxlzAoZgLkCcC8sJQ4kMDAOTVjLw03yPYirvzkUn27os2Xv1IUZF2XMMGhZ1XEwKAAPASUL56AFIY3Jnn4M7s9PlsDQCwH8J4zIn8SinAlWigP1LafmqGutyOuhg/OIry3oB5BvlWQ6YHAUAAeAk4nwBAgWoQmNILmJW0cBoAiG9l91xMO+vq6k6xmTxtbm4euWvXLllsZPwKE8rbAAC0J61v0nQEAAGQNHb2SecZANILmIo7p0wIDrifvqnQWgAgn79FPrea/EW/rwMEGjQQgN/R8CtLl2UXYNMh6xuOTzLEMDk2/U4AEACmGFH97hsAkika0WI0IllYY31oAWBzl5ZCoDwv4c/8cvsNyrcGsZKyEXML0p1XfW/QdZ2BtTglCQgAAsAlfj5NmxIATo3eFjR+uah/JbQAkHTKsvfPYgP+h6yafAt5yaIq6eYfJe60DT9ymNvdX/InAAiAwgIg6gXYdNE/rYsNANDTOBEN+HEkNm1O4kWrfk7mYHJRhjq5HAQAAeAl8JR3UeM6gP6FmTp16hgsVZYJQeOS3dK0NgBw6AW4apfr3Z89AP1XccpdaOuAto0YEHoX0hj37wtlHcBA+uAOfSnu0PL9ApvjBGgiLw2pjuh5vUza1asSuBupPzXunlV5D+wBFL8HoFlFthHBfmKagWLyjUZ6GRrpPQa7xMDUrtvvyz/JslrsTXAkvlB8I+pxmam+Lr+jd9KKXs2tePPy1y5+fKQlAIoPgCdxoeV9+bjjZwDAV30ERFIfmmXVLmvqo6GAwFCz715iIE6ZMuVggQDyif0+YVKdkO4JAOAWPPOXuuR+EAAFBwDurBei4fwYkVJuGNCDgJK31ZbkGU1RF/o9lKHsohfTx0VM5Uewyos7Mh8QOyRCPufhSz6tJn9xvwNot0LXebAxbhuuzQfXsRVluzzpZ8a1+djYEQAFB4BcTMNXbHNZQz5QkEWwGvAjmrLTUNznxbVBCy3OR8MUCJRrmMZvGGjzwlLhcXhFtwlln440VpOQJXm8gX/LF5iWo+H/Upt3VnYEQAUAQIIhalzSLe17q2wT/v0gxrqL81hBVi5AZSiA376LgJdySiPdhAZ0Hxr/D3wFtQwH0E2/CXnIl43G4NyKPNbj7yLTB0GTlEEW92AXovNlURLylMU9pi8aSTadONsAkLuz3uTDpo4EQIUAoO+iygaUhx56aK1mOapNINBWr4AMd7q7u49A4xb4jMGqv9Ho2stmLN2AxBZsk7U+zS/m6ktqtiQAKgwA5ktKCyqgV4AAIAD00ULL4BQgAAiA4IKaFdIrQAAQAPpooWVwChAABEBwQc0K6RUgAAgAfbTQMjgFCAACILigZoX0ChAABIA+WmgZnAIEAAEQXFCzQnoFCAACQB8ttAxOAQKAAAguqFkhvQIEAAGgjxZaBqcAAUAABBfUrJBeAQKAANBHCy2DU4AAIACCC2pWSK8AAUAA6KOFlsEpQAAQAMEFNSukV4AAIAD00ULL4BQgAAiA4IKaFdIrQAAQAPpooWVwChAABEBwQc0K6RUgAAgAfbTQMjgFCAACILigZoX0ChAABIA+WmgZnAIEAAEQXFCzQnoFCAACQB8ttAxOAQKAAAguqFkhvQIEAAGgjxZaBqcAAUAABBfUrJBeAQKAANBHCy2DU4AAIACCC2pWSK8AAUAA6KOFlsEpQAAQAMEFNSukV4AAIAD00ULL4BQgAAiA4IKaFdIrQAAQAPpooWVwChAABEBwQc0K6RUgAAgAfbTQMjgFCAACILigZoX0ClQ1AKZPnz529+7db+rl+ozl2lWrVk12SM+kVCBXBVwBgPZzdHt7++a0KlGTlmPxO23atJNrampeccijAwCY6JCeSalAbgqg8R+EzLfi3D9JIdB2uoYNGzaypaVld5L0mjSpAgACHINCvKUpSBmbTQDA8Q7pmZQK5KZAQ0PDCYMHD/6NQwHeR/x/ziG9MWmqAGhqahq1Z8+eD4ylKG+wHelHr1mz5ncOPpiUCuSiAABwNgDwTNLMe3t7X1+9evW4pOk16VIFgBQAvYAP8WekpjAD2aQ9BkpaLqajAiYFGhsb69GInzXZxfzeiR7AsQ7pjUmzAMDLKMWpxpKUMYCADaBge9L0TEcF8lIAc2CXYRx/j0P+7QBAg0N6Y9IsANCCUpxvLEl5ACwAABYmTc90VCAvBdADWI4bWLND/rcAADc7pDcmzQIAd6AU84wlKW/AR4EO4jFpPgpg6CuT1y/gPCRpCdB7uLitre2hpOk16bIAwNdQkGWawpSz2W+//Y5dsWJFp4sPpqUCWSoAAExCfk+75IneQxN6v20uPkxpUwcAZkLPxEzoOlNBDL/PRVdosaMPJqcCmSmA8f/DuIN/3SHDd/AEbDyegLk8RTNmnzoApASuq6Eg5EvoCp1urA0NqEABFKivr68dPnz42yjKEQ7FWY+b3niH9KqkmQAAkyE/QXfmIlWJBjbaAwhcAAg87uCDSalAJgog3hcg3p0m75B+Prr/t6Vd4EwAgB6A8zwAhNgAIp6StiD0TwVcFJgxY8aInTt3yvsvo138ZPX4OxMAYDx0IsRYi7v4H7mIgrmES1auXPmAiw+mpQJpKoCb3V3wP9cxjxcR65MR6zsd/RiTZwIAKQWEeQR/ZhlLFG/wLMh4AbpG8oIFDypQKAWipb9LUajDHAuW+vP/vvJlBgD0AhrRA1jpKMwg+LgNcwHzXf0wPRXwrQBucvK4W4a7Tgfu/mfh7u/65ExVhswAEM2Mvo9SjVKVLN5oDuYDpEfBgwoUQgE0flnsJoveXI9M34DNDACiCkS6CX++46oQ0r+FnsD16Aks9+CLLqiAkwLo3V6DeFwEJ7VOjpAYfmYjrh919aNNnzUAjkEFH8U4/jRtAWPs/i2CwC88+KILKpBIATzyOx/xLI3/84kclCRCPC9F45+N/9Xr6kubPlMASKFAywtRUV/rmzdhtdRkrJbaoq0w7aiALwWw38U4xJ/0Qr28s5/Vo7/S+mcOAMyUHopJDunieNnrDzCR140XcZGQr7CmH40CGM5eDbvrcB6lsVfY3IN5rSsUdl5NMgeAlB7dpotAu5/4qgkg8F4Egbt9+aQfKjCQAtE+f9LwZdJvqCeV3sVNcVZWM/+59gD6MoeQslNKvScB+9wsHjJkyMLW1tbtnv3SHRUY1NzcPLKnp+cO3Ly+4VmOJbj7uyyVT1ycXHoAUloAYAb+yKIJ55nTfYhWU/MqxmXL8ArxUhD13cTKMCEViBRAj/UkNPqZsggNvc0jfQoDf6/C7ywAYKNPv1pfuQEggsD38Pdb2sJa2sn+Ad+GsI9ZpqM5FdirgKxdqaurm41Geiv+0+XNvjhFc33VPVcA4MMhh2HTzzuhjjz6SOWQ7xKAsOvkrK2tXYeNRf4rlYzoNAgFcLeXTTgnIF4myF+cx6VVMcTmQkxeL0jLv8ZvrgCQAsq4ateuXfIs38ujFEOlt+H3Nlzc5zDpshnnlqFDh27Fhxe6NGLRJiwF5M297u7uIxAPozFsHIsG+ReoYSPOxLtYWyi0bseOHRM7Ojp6LNJ4N80dAFKj6HmqPM4b4b2GOocyaciJQ51WoVjJkvS84m0LoDO+CC+1FQIAElHRo0EZDhwcSoSxHlSgvwJo+HKjm4fG/3wR1CkMAEQMPBm4EX/+vgjCsAxUIAUFtmCYMa9Ii9YKBYAIAmk+GUjhmtIlFVArkOuM/0ClLBwAUMga9ARkpZWcTtsqqS8LDalAigpItx8TzoVcrl5EAOy9FJgTkN2DroN43AcwxeCk69QVWCFvCxZlzN+/toUFgBQUTwfOxuMZ6QlMS/0yMQMq4F+B+6PG/4Z/1348FhoAUsXoG+sCgYv9VJleqEDqCnTJBiHS7cfCs49Sz80hg8IDQOomSzJHjBhxK2gqb2B5fXfAQTsmpQIDKazesH8AAAEqSURBVNCN/zm/Ur5kVREA6FMZk4MToxcyZuL/DWf8UYECKbAZZZGX25bl9WJPEi0qCgAlIJiOfwsEnHdgTSIa01CBEgV+i5vSMtnOCw3/xUpTpiIBEIk8GE8K5BVNAcG5lSY8y1vxCuyWRo9J6qWY4W+v1NpUMgD2al7yyqbsODy2Ui8Ey11RCsi7+7eHsDV9xQOgNGzksSF6BJNxyrfZT62okGJhi66A7GC1FjP7T2OjGVnPH8QRFAD6rkj01EDe5a7HOQVAEBjw6UEQIZtZJWQ2/yV085/D346urq51eb+6m0bNgwRAf6Gi975PxuYj43BBv4hzLKAgwwV5HVTe/c7i/e80rh99uikg+0PIXhDyKngn4qITY/q3EBsbP/744w1o8AKBoI//B/x7nC0M7g6AAAAAAElFTkSuQmCC;" vertex="1" parent="1">
          <mxGeometry x="120" y="160" width="40" height="40" as="geometry" />
        </mxCell>
        <mxCell id="4Eko1OY5xelyAzkIzd4i-9" value="" style="shape=image;verticalLabelPosition=bottom;labelBackgroundColor=default;verticalAlign=top;aspect=fixed;imageAspect=0;image=data:image/png,iVBORw0KGgoAAAANSUhEUgAAAQAAAAEACAYAAABccqhmAAAgAElEQVR4Xu2dDZBW1XnHWVxEFmxRsdKoEQ0atHHUVmb8wHYxICzuMmsi0yCQqhPjt4YRbdGmgqaNVjHYfPgRjdgoaFfDCgtsRqyrUmMiExlLLOpaUZlKK41MXXAjC9v/Q+46L+u+9zznnnM/3vP+78ydRd/nPOec/33O755z7rnn1gzikasC06ZNG11TU/MsCjEu14JUV+ZbUN0enNtwdkH/7b29vZ0438K/5e/G1atXb60GSWqqoZJFrSMa/2QE3AKU74yilrGKy7UJdV+P67MeQHi5rq5ufUtLyyeh6UEA5HRFGxsbv4zAksY/IaciMFs7BaSXtnbw4MFPr1y58mW7pMW1JgByuDbs9ucgur8se9AraMd5O0Cwzp/bfDwRABnrzsafseApZgcItKJHcP2KFSs6U8wmVdcEQKry7usc3f56dPtvxv+tzzBbZpWuAr/FNV0GGCxdtWrVi+lm5d87AeBf0wE9svFnJHR+2WxG1ktxLgMINuZXDLucCQA7vRJZs9ufSLZKTbR1z549l69Zs6a1EipAAKR8lXjnT1ngYrqXtQWLMD+wCPMDHxWziL8vFQGQ4tVh409R3MpwfT/mBxZhUdEbRS0uAZDSlWHjT0nYynO7IoLA80UsOgGQwlVh409B1Ap2KSsJZTjQ1tb2eNGqQQB4viKc8PMsaDjuZAHRTEDgiSJViQDweDV45/coZpiutgAC84rUEyAAPAUaG78nIQN3I8MBVHEeJgYLMSdAAHgIuJS7/X2vrnooKV1EChyBv7U5qrERbxeejrcLu3Isw96sCQDHK5By4x+0e/fuo9vb2zc7FpPJ+ynQ1NQ0Cgt2RuOOLDAYjUm6L+Df9fh3Jm9nynsEGAqcl/eFIQAcrkAW3f4hQ4Yc1Nraut2hmExqoQCu6bECAcBAQCDncRbJrUwBgYWAwAKrRJ6NCYCEgmbR+KVoBEDCC+Qh2bnnnnsM3MzEeQHOEzy43McFANCFXojMB9zn27fWHwGgVarELqvGTwAkuDgpJMH1PgkNVSAwE432SJ9ZwN+r6G3MyusFIgLA8mqmPebvXxzOAVheoBTNp0+fPhbX4/vIYqrnbBYDAHM9+1S5IwBUMv3eKMs7f1+xOASwuEAZmGJYcBCyuQ7nPJxDPWX5LiYhZ+WxwxABoLyCeTR+DgGUFycHM4Dg6ggER3nK/h70Aq7w5EvthgBQSJV1t7+0SBwCKC5QTiZ4lDgBcwMtyH60jyLA1+nYR+AlH760PggAg1J53fk5BNCGcL52iI/z5W0/lOLzriWRbcXwWHA2/PS6+tKmJwBilMq78XMIoA3jfO3QQ7xGNgBBKZxXF8LPbEDg0axqRACUUTrPbj+HAFmFv798MCdwB7zJxKDrsR5zAeNdnWjTEwADKFWUxi9F4xyANpTztauvr68dPnz4GpRikmtJMKQ4BYuDNrj60aQnAPqpVIRuf2mR+BhQE8bFsGloaDgbj/NkZ+DDHEt0C3oBsn186gcBUCJx0Rq/FI0ASL0NeM0AQ4G74NB1Uc+LAMlkrAvY6bVwAzgjACJRitTtL71OHAKk3QT8+o/eMnwTXke6eMZk4ERMBna4+NCkJQCgUhHv/H0Xjz0ATRgXywa9gIUo0d+5lArzAPMxD3Cbiw9N2qoHQFHv/H0Xjz0ATRgXywYTggdgQvA9lGqUQ8nWYR7gLIf0qqRVDYAi3/nZA1DFb2GNcGN5GN34rzsU8B2sDByPlYEfOPgwJq1aABT9zs8egDF2C22AJwLNmMhb7ljIyegFrHX0EZu8KgFQCXd+9gDSDPv0fWMe4Hjk8gLOQ5Lmhh7ExZgIfChpek26qgNAJTV+uYCcBNSEcTFtEGvLMZnX7FC61NcDVBUAKqXbXxownAR0aD45JwUArgIAZAORRAd6AOgAtDUlSqxMVDUAqMTGL9eQAFBGcgHNMAyQZcFPOxRtE+YAZCiR2lEVAKi0bn/p1eYQILXYT91xtDT4maQZoffwOtYCjEuaXpMueABUcuPnHIAmhItrAwCcgCcBv3Eo4fvoAXzOIb0xadAAqPTGTwAY47fQBlOmTDm4trb2fRRy/4QF3TF+/Pg/WLBgwZ6E6Y3JggVACI2fADDGb+ENMA/wDgqZeLegtIeAQQIglMZPABS+fRsLCAC8DaMxRsMyBgSApXIhNX4CwPLiF9CcAMjwooTW+AmADIMnpawIgJSE7e82xMZPAGQUPClmQwCkKG6f61AbPwGQQfCknAUBkLLAITd+AiDl4MnAPQGQosihN34CIMXgycg1AZCS0NXQ+AmAlIInQ7cEQApiV0vjJwBSCJ6MXRIAngWvpsZPAHgOnhzcEQAeRa+2xk8AeAyenFwRAJ6Er8bGTwB4Cp4c3RAAHsSv1sZPAHgInpxdEACOF6CaGz8B4Bg8BUhOADhchErdxsuhyp9Jyi3BfKqZvS9XAKR9/Qv7OnC13/mjUP2orq7usJaWlo+zD13m6EMBVwBU5evAbPyfhl4ntoQ61kcg0kc+ChAAlrqz8e8j2IsAwJmWEtK8QAoQABYXg43/M2ItBwC+YiEhTQumAAGgvCCc8BtQqEcAgDlKCWlWQAVcAVAVk4C88w8cufg67Hn4OmxrAeOaRVIq4AqA4CcB2fjLRtJr3d3df/7MM8/8rzLWaFZABQiAmIvCxh8bsfeh+39ZAWOaRbJQgAAoIxbH/MYomgMAPGK0okGhFXAFQJBzALzzG2P2CSwAmoUFQJ8YLWlQaAVcARDcHAAbvzFeP8ZnoWfhs9DLjZY0KLwCBEDJJWK3XxWvHej6T1RZ0qjwCrgCIJghABu/KlZ78Eno0/FJ6PUqaxoVXgECAJcIIkzCn5txTij8FcuvgP+Nxn89Gv9P8ysCc/atgCsAKn4OoKmp6RwsaJHGf4ZvcUPyh8Z/Axr/HSHViXXZe/Or3o+DovGPQuN/AYEwjsEQq8ATO3bsmNnR0dFDncJSwBUAFT0HEM34PxvWJfVamw/hbREgeSeW/P7Oq2c6K4QCrgCo6CEAARAbg5vw652Y8X+wEJHKQqSiAAHQ28sewGdDqxP/63I0/rWpRB2dFkYBVwBwCFCYS+mlIALDR7HKbym3+fKiZ+GduAKAQ4DCX2JVAbdgdd+DtbW1i1tbW7erUtAoCAVcAcAeQOWGwQY0+jZM8D2Jx3sbKrcaLLmLAgSA2xzAOjwfr5RJsq0IlK0o7zbM6G9xCRqmDUcBAsANAEswUXZROOHAmlSbAq4AqPY5AAKg2lpMYPUlANgDCCykWR0bBQgAAsAmXmgbmAIEAAEQWEizOjYKEAAEgE280DYwBQgAAiCwkGZ1bBQgAAgAm3ihbWAKEAAEQGAhzerYKEAAEAA28ULbwBQgAAiAwEKa1bFRgAAgAGzihbaBKUAAEACBhTSrY6MAAUAA2MQLbQNTgAAgAAILaVbHRgECgACwiRfaBqYAAUAABBbSrI6NAgQAAWATL7QNTAECgAAILKRZHRsFCAACwCZeaBuYAgQAARBYSLM6NgoQAASATbzQNjAFCAACILCQZnVsFCAACACbeKFtYAoQAARAYCHN6tgoQAAQADbxQtvAFCAACIDAQprVsVGAACAAbOKFtoEpQAAQAIGFNKtjowABQADYxAttA1OAACAAAgtpVsdGAQKAALCJF9oGpgABQAAEFtKsjo0CBAABYBMvtA1MAQKAAAgspFkdGwUIAALAJl5oG5gCBAABEFhIszo2ChAABIBNvNA2MAUIAAIgsJBmdWwUIAAIAJt4oW1gChAABEBgIc3q2ChAABAANvFC28AUIAAIgMBCmtWxUYAAIABs4oW2gSlAABAAgYV0ttWZNm3a6D179hyAY3tra+v2bHN3z40AqBAANDc3j/zkk09Oq6mp+RLOEbaXvre3twvnNpzb99tvv+09PT2b29vbN9v60dijUUxFGWfB9ks4paydyPepnTt3PtDR0dGj8aGxQT6XIZ+/hO0YnNtwvjR48OCFK1eulH97PZqamkahoc9Gfn+Cukh+ch6B84CSjLrw7y3RuQl/n9qxYweq7K/OXisFZwRABQAAgf4NBN4duF4jPQeAAKAD588RqE+4Bmp9fX3t8OHDfwx/F5Yp50Y0nsmrV6/e6lqPxsbGlfDVOICfbQDc6StWrOh0zUPSo4EIcK9EXlKn0saudS91fQzweHzNmjUvaRNlZUcAFBwADQ0Np+Gu9osMAkJgcDdAcC9A0J0kPwTTt5Due4a0m9CYJrpAAEC8EI3yoZh81q5atWpykjr0pUEepyKPW/HfU1389Eu7ZMiQIXOLNFQgAAoOAFygFgTR+R6D0ORqI+6g59neQWWIsmvXrrfhXNNL6UADnWgqSLnfNZrU1dUd2NLSIl1y6wP+r0OiG3EebJ3YnOBFgOW+tra2fzabpm9BABQfAP+BMBiXfijsk4PMF8zEXbpNm290x3xZaw//l8P/vVr7UjsE7Sv475Pj0sL/KfC/wdY/fM9GGuld1NqmtbFH+S5C+ZbYpEnDlgAoPgB607jwCp9vYegxDxNqrQrbQRiTX4ugXqyxjWx+jXHxHIyLX7NIs9cUQfsh/sT2NGwBMGnSpD/cf//9b8Td+Qbb8iS034y8rkdP4ImE6b0kIwAIgLhA2ho1JOOkHQCwALY3W0blP2AocJNlmlQAgB5MIxrkStuyONpvBQTHA4Ly5CCXgwAgAEyB9yM00itNRgkB8C6gMQdd4edN/kt/990DQOM/Cr2dx1CW02zK4cMW0PkhegFX+fCVxAcBQACY4kYWt8wGBFbFGSYEgLi8H64vNRUiTQCgEXwN/pfZlCGylTu3PO+Xv2NwyrqAsZZ+evBk4NC8ngwQAOEAYPLu3bvLPvvGzP5Y3G3G4S73BQTohTg1s/V7YxnpcJNqa0oJADvhfzb8L9c2HJ89gGjtgky0ahvudpT3XnTd7x7oUSZ6EyejN3EpdL5MWx/4Oj2vNQIEQCAAwF20Rhtw0ao2WVgkINAc3VgfcFDc+gCHHoDk/zM0mjmYcNypKYxPACjWFJQWaSvKORHllLt+7IEyToKBQM24ahOwGA+YrDf5TON3AqAKAdAXSLj4/4R/X60JLARpU9xjQUcASC/jm+gFyCpC4+ETAPD1LDKsN2Y6aFAXGv94TePv8wXQTsDdfY0BAka4KsqW2IQAqGIAzJgxYwTW58uze+M6AzTQhWigC8pFmisA4Pf52tra2U899dR7pmj2BQCU+SSA7ZfIb6gpT9T/RtT/uya7/r8jj0uQh6Q7ZKC0+O1agFVAnMtBAFQxACTiEACydFeW8MYeCNR/RKD+dYoAkF6AqpH5AkDUTX/aVHf83o36H510+XL0iPGn8FM67yIvRf0AQ6vrXd/BUJS/rAkBQABcgej4oSmI0DgfwB3wkjQBAN+vyRt3mBCTlX5xQetlIZDy3QUph9PSZXGAycYDDjzwwFNRv1Pxn9swnFhvM5wwXZ+kvxMAVQ4AdFHrcXeTcbDpiG0EHoYAe/NHWe7CnVbW4qcOAJT5Hs1sPeB3G+A33yRQJf5OAOiCv9y1XYLZ94vSvPC4QKqlwDZPAUrLG734cqeiDvcgD+ktDHh4BMD/IIPZgEDZrrnHIcA65HWmqe4AwMUAQNzbhyYXhf2dACAA5IUc40IcNILvoBF82xEAjyC9bBIS+yIPfo99nVcTtCjvRJS3w9CTUD0BKMqLO2lQRKNlXL5YxHRQmouY1M+2k4hj0f0NsgcQrQeQ8basYIs90Ajm4658myMAlqBhPqwZcsQ9dtQErRIA8vryGFPdMW7/MuYl/tVkV4m/a7QkAMorUNFDAABwORpasyZwTavVlEOAvXrF7OZTWpRNmCE/caAZck3Q+gSAxpdGwyLaaLQkAAIDAC66vPP+VzhltZrxACSew92/Ps7QBgDIfwp8yXBglCHzawCM7/e38TgHICsPh5kEwDLqk7BByqsmu0r8nQAIZA5AuugIwLKv7eIuNhLnF2Eni34m4LTZ8GIxGuJcXwAQP8r1B7+K3hN4szRvjwD4GH6N+/xpewCyriDaP1DmOMYogLAN9p3oXT2cdHMURR6xJgRAIABwDYRy6RGgr+CZ9UzcAV/3DIA/gz9ZHHO8oey3AD777DPgEQCqJywaAKAHdBXg+pneisV1uRP1vN7C3ospAUAAmAJJFZg2Q4C+DBF8shnIdwwF+M+oF/DpxqhFA4As8sFuyB+gHsYXf2Lq2gPQ/nEaW5rH6UsAEABx8fFwtC2YcZ/9JACQjTjQuKUXcJYBAvtsSpIDAI7DI8V9hiGl5UU9vop6OG/tBR9nIJ8sdoD+tPgEAAFQru39HD/MQ7d0o6mLIL8nAYCkQwB+E3/uM+Txf1EvYO+WXTkAIHZNge2GqDHDLePaBc21sLEhAAiAgeJlI+78M2zWqicFwDnnnDMci0mkF3CeIXD/5fDDD599//337/IIANU6ANMcgKchgLwMRQD0CwIuBFIuBbahfpytvPQzbNiwubZ76icFQHRH/wr+CgTq4sqGSbaLMVv+UNEAEPWAXCcBCYABLj4BkA0A3oX2sivPk7jry/p468MFABEEZK39hYaMO2VxECbcZAuvMQaQGe+mFt3fyRgKrTWJEr32ey3s+m8vFlvWEr8naodcprJof7fQYECXXApckJeBtBe8xE72tuuQRT5Y6NJm+yWg/vm5AgCfQDsCAJKJttjn8rLeAeWWdxd8AOAF+JE1EbGH67sAaGSqrzthT8ej0/pga7kKEgDhzAHMRMOI3b8fC066cG7De+nbbLv4pkbiCgDxr/Qh3y2URUyxC5k042kEv/ZloEsw9HjApEFMI9P0bgYRAJ9VkEMA5RAg6evASYPadw9A/KFByqIgWSL8p67l0nwZCPnJVuCyJXjsYdoOzZRemw+GN8OSfpjVVAb2AAZQoNrfBkwaNAOlU969jS9PYRw9Fw3uLteyaQCAvP4GeWn2+XsMgJ2ZtEwAwL8jrbwGHXdsQR5HJs0jaToOAQIZAoTQA5AgxlzAoZgLkCcC8sJQ4kMDAOTVjLw03yPYirvzkUn27os2Xv1IUZF2XMMGhZ1XEwKAAPASUL56AFIY3Jnn4M7s9PlsDQCwH8J4zIn8SinAlWigP1LafmqGutyOuhg/OIry3oB5BvlWQ6YHAUAAeAk4nwBAgWoQmNILmJW0cBoAiG9l91xMO+vq6k6xmTxtbm4euWvXLllsZPwKE8rbAAC0J61v0nQEAAGQNHb2SecZANILmIo7p0wIDrifvqnQWgAgn79FPrea/EW/rwMEGjQQgN/R8CtLl2UXYNMh6xuOTzLEMDk2/U4AEACmGFH97hsAkika0WI0IllYY31oAWBzl5ZCoDwv4c/8cvsNyrcGsZKyEXML0p1XfW/QdZ2BtTglCQgAAsAlfj5NmxIATo3eFjR+uah/JbQAkHTKsvfPYgP+h6yafAt5yaIq6eYfJe60DT9ymNvdX/InAAiAwgIg6gXYdNE/rYsNANDTOBEN+HEkNm1O4kWrfk7mYHJRhjq5HAQAAeAl8JR3UeM6gP6FmTp16hgsVZYJQeOS3dK0NgBw6AW4apfr3Z89AP1XccpdaOuAto0YEHoX0hj37wtlHcBA+uAOfSnu0PL9ApvjBGgiLw2pjuh5vUza1asSuBupPzXunlV5D+wBFL8HoFlFthHBfmKagWLyjUZ6GRrpPQa7xMDUrtvvyz/JslrsTXAkvlB8I+pxmam+Lr+jd9KKXs2tePPy1y5+fKQlAIoPgCdxoeV9+bjjZwDAV30ERFIfmmXVLmvqo6GAwFCz715iIE6ZMuVggQDyif0+YVKdkO4JAOAWPPOXuuR+EAAFBwDurBei4fwYkVJuGNCDgJK31ZbkGU1RF/o9lKHsohfTx0VM5Uewyos7Mh8QOyRCPufhSz6tJn9xvwNot0LXebAxbhuuzQfXsRVluzzpZ8a1+djYEQAFB4BcTMNXbHNZQz5QkEWwGvAjmrLTUNznxbVBCy3OR8MUCJRrmMZvGGjzwlLhcXhFtwlln440VpOQJXm8gX/LF5iWo+H/Upt3VnYEQAUAQIIhalzSLe17q2wT/v0gxrqL81hBVi5AZSiA376LgJdySiPdhAZ0Hxr/D3wFtQwH0E2/CXnIl43G4NyKPNbj7yLTB0GTlEEW92AXovNlURLylMU9pi8aSTadONsAkLuz3uTDpo4EQIUAoO+iygaUhx56aK1mOapNINBWr4AMd7q7u49A4xb4jMGqv9Ho2stmLN2AxBZsk7U+zS/m6ktqtiQAKgwA5ktKCyqgV4AAIAD00ULL4BQgAAiA4IKaFdIrQAAQAPpooWVwChAABEBwQc0K6RUgAAgAfbTQMjgFCAACILigZoX0ChAABIA+WmgZnAIEAAEQXFCzQnoFCAACQB8ttAxOAQKAAAguqFkhvQIEAAGgjxZaBqcAAUAABBfUrJBeAQKAANBHCy2DU4AAIACCC2pWSK8AAUAA6KOFlsEpQAAQAMEFNSukV4AAIAD00ULL4BQgAAiA4IKaFdIrQAAQAPpooWVwChAABEBwQc0K6RUgAAgAfbTQMjgFCAACILigZoX0ChAABIA+WmgZnAIEAAEQXFCzQnoFCAACQB8ttAxOAQKAAAguqFkhvQIEAAGgjxZaBqcAAUAABBfUrJBeAQKAANBHCy2DU4AAIACCC2pWSK8AAUAA6KOFlsEpQAAQAMEFNSukV4AAIAD00ULL4BQgAAiA4IKaFdIrQAAQAPpooWVwChAABEBwQc0K6RUgAAgAfbTQMjgFCAACILigZoX0ClQ1AKZPnz529+7db+rl+ozl2lWrVk12SM+kVCBXBVwBgPZzdHt7++a0KlGTlmPxO23atJNrampeccijAwCY6JCeSalAbgqg8R+EzLfi3D9JIdB2uoYNGzaypaVld5L0mjSpAgACHINCvKUpSBmbTQDA8Q7pmZQK5KZAQ0PDCYMHD/6NQwHeR/x/ziG9MWmqAGhqahq1Z8+eD4ylKG+wHelHr1mz5ncOPpiUCuSiAABwNgDwTNLMe3t7X1+9evW4pOk16VIFgBQAvYAP8WekpjAD2aQ9BkpaLqajAiYFGhsb69GInzXZxfzeiR7AsQ7pjUmzAMDLKMWpxpKUMYCADaBge9L0TEcF8lIAc2CXYRx/j0P+7QBAg0N6Y9IsANCCUpxvLEl5ACwAABYmTc90VCAvBdADWI4bWLND/rcAADc7pDcmzQIAd6AU84wlKW/AR4EO4jFpPgpg6CuT1y/gPCRpCdB7uLitre2hpOk16bIAwNdQkGWawpSz2W+//Y5dsWJFp4sPpqUCWSoAAExCfk+75IneQxN6v20uPkxpUwcAZkLPxEzoOlNBDL/PRVdosaMPJqcCmSmA8f/DuIN/3SHDd/AEbDyegLk8RTNmnzoApASuq6Eg5EvoCp1urA0NqEABFKivr68dPnz42yjKEQ7FWY+b3niH9KqkmQAAkyE/QXfmIlWJBjbaAwhcAAg87uCDSalAJgog3hcg3p0m75B+Prr/t6Vd4EwAgB6A8zwAhNgAIp6StiD0TwVcFJgxY8aInTt3yvsvo138ZPX4OxMAYDx0IsRYi7v4H7mIgrmES1auXPmAiw+mpQJpKoCb3V3wP9cxjxcR65MR6zsd/RiTZwIAKQWEeQR/ZhlLFG/wLMh4AbpG8oIFDypQKAWipb9LUajDHAuW+vP/vvJlBgD0AhrRA1jpKMwg+LgNcwHzXf0wPRXwrQBucvK4W4a7Tgfu/mfh7u/65ExVhswAEM2Mvo9SjVKVLN5oDuYDpEfBgwoUQgE0flnsJoveXI9M34DNDACiCkS6CX++46oQ0r+FnsD16Aks9+CLLqiAkwLo3V6DeFwEJ7VOjpAYfmYjrh919aNNnzUAjkEFH8U4/jRtAWPs/i2CwC88+KILKpBIATzyOx/xLI3/84kclCRCPC9F45+N/9Xr6kubPlMASKFAywtRUV/rmzdhtdRkrJbaoq0w7aiALwWw38U4xJ/0Qr28s5/Vo7/S+mcOAMyUHopJDunieNnrDzCR140XcZGQr7CmH40CGM5eDbvrcB6lsVfY3IN5rSsUdl5NMgeAlB7dpotAu5/4qgkg8F4Egbt9+aQfKjCQAtE+f9LwZdJvqCeV3sVNcVZWM/+59gD6MoeQslNKvScB+9wsHjJkyMLW1tbtnv3SHRUY1NzcPLKnp+cO3Ly+4VmOJbj7uyyVT1ycXHoAUloAYAb+yKIJ55nTfYhWU/MqxmXL8ArxUhD13cTKMCEViBRAj/UkNPqZsggNvc0jfQoDf6/C7ywAYKNPv1pfuQEggsD38Pdb2sJa2sn+Ad+GsI9ZpqM5FdirgKxdqaurm41Geiv+0+XNvjhFc33VPVcA4MMhh2HTzzuhjjz6SOWQ7xKAsOvkrK2tXYeNRf4rlYzoNAgFcLeXTTgnIF4myF+cx6VVMcTmQkxeL0jLv8ZvrgCQAsq4ateuXfIs38ujFEOlt+H3Nlzc5zDpshnnlqFDh27Fhxe6NGLRJiwF5M297u7uIxAPozFsHIsG+ReoYSPOxLtYWyi0bseOHRM7Ojp6LNJ4N80dAFKj6HmqPM4b4b2GOocyaciJQ51WoVjJkvS84m0LoDO+CC+1FQIAElHRo0EZDhwcSoSxHlSgvwJo+HKjm4fG/3wR1CkMAEQMPBm4EX/+vgjCsAxUIAUFtmCYMa9Ii9YKBYAIAmk+GUjhmtIlFVArkOuM/0ClLBwAUMga9ARkpZWcTtsqqS8LDalAigpItx8TzoVcrl5EAOy9FJgTkN2DroN43AcwxeCk69QVWCFvCxZlzN+/toUFgBQUTwfOxuMZ6QlMS/0yMQMq4F+B+6PG/4Z/1348FhoAUsXoG+sCgYv9VJleqEDqCnTJBiHS7cfCs49Sz80hg8IDQOomSzJHjBhxK2gqb2B5fXfAQTsmpQIDKazesH8AAAEqSURBVNCN/zm/Ur5kVREA6FMZk4MToxcyZuL/DWf8UYECKbAZZZGX25bl9WJPEi0qCgAlIJiOfwsEnHdgTSIa01CBEgV+i5vSMtnOCw3/xUpTpiIBEIk8GE8K5BVNAcG5lSY8y1vxCuyWRo9J6qWY4W+v1NpUMgD2al7yyqbsODy2Ui8Ey11RCsi7+7eHsDV9xQOgNGzksSF6BJNxyrfZT62okGJhi66A7GC1FjP7T2OjGVnPH8QRFAD6rkj01EDe5a7HOQVAEBjw6UEQIZtZJWQ2/yV085/D346urq51eb+6m0bNgwRAf6Gi975PxuYj43BBv4hzLKAgwwV5HVTe/c7i/e80rh99uikg+0PIXhDyKngn4qITY/q3EBsbP/744w1o8AKBoI//B/x7nC0M7g6AAAAAAElFTkSuQmCC;" vertex="1" parent="1">
          <mxGeometry x="110" y="210" width="40" height="40" as="geometry" />
        </mxCell>
        <mxCell id="4Eko1OY5xelyAzkIzd4i-13" style="edgeStyle=orthogonalEdgeStyle;rounded=0;orthogonalLoop=1;jettySize=auto;html=1;dashed=1;endArrow=none;endFill=0;" edge="1" parent="1" source="4Eko1OY5xelyAzkIzd4i-10" target="4Eko1OY5xelyAzkIzd4i-12">
          <mxGeometry relative="1" as="geometry">
            <Array as="points">
              <mxPoint x="328" y="270" />
              <mxPoint x="288" y="270" />
            </Array>
          </mxGeometry>
        </mxCell>
        <mxCell id="4Eko1OY5xelyAzkIzd4i-17" value="(2)&lt;br&gt;landmark prediction" style="edgeStyle=orthogonalEdgeStyle;rounded=0;orthogonalLoop=1;jettySize=auto;html=1;entryX=0;entryY=0.5;entryDx=0;entryDy=0;strokeWidth=3;" edge="1" parent="1" source="4Eko1OY5xelyAzkIzd4i-10" target="4Eko1OY5xelyAzkIzd4i-16">
          <mxGeometry y="-25" relative="1" as="geometry">
            <mxPoint as="offset" />
          </mxGeometry>
        </mxCell>
        <mxCell id="4Eko1OY5xelyAzkIzd4i-34" value="(5) packaging results" style="edgeStyle=orthogonalEdgeStyle;rounded=0;orthogonalLoop=1;jettySize=auto;html=1;entryX=0;entryY=0.5;entryDx=0;entryDy=0;strokeWidth=3;strokeColor=#666666;" edge="1" parent="1" source="4Eko1OY5xelyAzkIzd4i-10" target="4Eko1OY5xelyAzkIzd4i-33">
          <mxGeometry x="-0.0033" y="15" relative="1" as="geometry">
            <Array as="points">
              <mxPoint x="327" y="75" />
            </Array>
            <mxPoint as="offset" />
          </mxGeometry>
        </mxCell>
        <mxCell id="4Eko1OY5xelyAzkIzd4i-10" value="InputImages" style="whiteSpace=wrap;html=1;align=center;fontFamily=Courier New;fontStyle=1;fontSize=14;" vertex="1" parent="1">
          <mxGeometry x="280" y="170" width="100" height="30" as="geometry" />
        </mxCell>
        <mxCell id="4Eko1OY5xelyAzkIzd4i-12" value="source-image video&lt;br&gt;(512 x 512)" style="verticalLabelPosition=bottom;html=1;verticalAlign=top;strokeWidth=1;align=center;outlineConnect=0;dashed=0;outlineConnect=0;shape=mxgraph.aws3d.image;strokeColor=none;fillColor=#4D4D4D;aspect=fixed;" vertex="1" parent="1">
          <mxGeometry x="270" y="310" width="34.88" height="60" as="geometry" />
        </mxCell>
        <mxCell id="4Eko1OY5xelyAzkIzd4i-14" value="Metadata table" style="verticalLabelPosition=bottom;html=1;verticalAlign=top;align=center;strokeColor=none;fillColor=#666666;shape=mxgraph.azure.cloud_services_configuration_file;pointerEvents=1;" vertex="1" parent="1">
          <mxGeometry x="340" y="310" width="38" height="40" as="geometry" />
        </mxCell>
        <mxCell id="4Eko1OY5xelyAzkIzd4i-15" style="edgeStyle=orthogonalEdgeStyle;rounded=0;orthogonalLoop=1;jettySize=auto;html=1;entryX=0.5;entryY=0;entryDx=0;entryDy=0;entryPerimeter=0;dashed=1;endArrow=none;endFill=0;" edge="1" parent="1" source="4Eko1OY5xelyAzkIzd4i-10" target="4Eko1OY5xelyAzkIzd4i-14">
          <mxGeometry relative="1" as="geometry">
            <Array as="points">
              <mxPoint x="328" y="270" />
              <mxPoint x="359" y="270" />
            </Array>
          </mxGeometry>
        </mxCell>
        <mxCell id="4Eko1OY5xelyAzkIzd4i-36" style="edgeStyle=orthogonalEdgeStyle;rounded=0;orthogonalLoop=1;jettySize=auto;html=1;entryX=0;entryY=0.5;entryDx=0;entryDy=0;strokeWidth=3;strokeColor=#666666;" edge="1" parent="1" source="4Eko1OY5xelyAzkIzd4i-16" target="4Eko1OY5xelyAzkIzd4i-33">
          <mxGeometry relative="1" as="geometry">
            <Array as="points">
              <mxPoint x="510" y="75" />
            </Array>
          </mxGeometry>
        </mxCell>
        <mxCell id="4Eko1OY5xelyAzkIzd4i-41" style="edgeStyle=orthogonalEdgeStyle;rounded=0;orthogonalLoop=1;jettySize=auto;html=1;endArrow=none;endFill=0;startArrow=diamond;startFill=1;exitX=0.5;exitY=1;exitDx=0;exitDy=0;" edge="1" parent="1" source="4Eko1OY5xelyAzkIzd4i-16" target="4Eko1OY5xelyAzkIzd4i-18">
          <mxGeometry relative="1" as="geometry">
            <mxPoint x="508" y="210" as="sourcePoint" />
          </mxGeometry>
        </mxCell>
        <mxCell id="4Eko1OY5xelyAzkIzd4i-16" value="DLCOutput" style="whiteSpace=wrap;html=1;align=center;fontFamily=Courier New;fontStyle=1;fontSize=14;" vertex="1" parent="1">
          <mxGeometry x="460" y="170" width="100" height="30" as="geometry" />
        </mxCell>
        <mxCell id="4Eko1OY5xelyAzkIzd4i-21" style="edgeStyle=orthogonalEdgeStyle;rounded=0;orthogonalLoop=1;jettySize=auto;html=1;dashed=1;endArrow=none;endFill=0;" edge="1" parent="1">
          <mxGeometry relative="1" as="geometry">
            <mxPoint x="507.5" y="250" as="sourcePoint" />
            <mxPoint x="470" y="310" as="targetPoint" />
            <Array as="points">
              <mxPoint x="508" y="270" />
              <mxPoint x="470" y="270" />
              <mxPoint x="470" y="310" />
            </Array>
          </mxGeometry>
        </mxCell>
        <mxCell id="4Eko1OY5xelyAzkIzd4i-24" value="(3)&lt;br&gt;reference atlas alignment" style="edgeStyle=orthogonalEdgeStyle;rounded=0;orthogonalLoop=1;jettySize=auto;html=1;entryX=0;entryY=0.5;entryDx=0;entryDy=0;strokeWidth=3;" edge="1" parent="1" source="4Eko1OY5xelyAzkIzd4i-18" target="4Eko1OY5xelyAzkIzd4i-23">
          <mxGeometry x="0.3333" y="35" relative="1" as="geometry">
            <mxPoint as="offset" />
          </mxGeometry>
        </mxCell>
        <mxCell id="4Eko1OY5xelyAzkIzd4i-18" value="Landmarks" style="whiteSpace=wrap;html=1;align=center;fontFamily=Courier New;fontStyle=1;fontSize=14;" vertex="1" parent="1">
          <mxGeometry x="460" y="220" width="100" height="30" as="geometry" />
        </mxCell>
        <mxCell id="4Eko1OY5xelyAzkIzd4i-19" value="labeled video&lt;br&gt;(512 x 512)" style="verticalLabelPosition=bottom;html=1;verticalAlign=top;strokeWidth=1;align=center;outlineConnect=0;dashed=0;outlineConnect=0;shape=mxgraph.aws3d.image;strokeColor=none;fillColor=#4D4D4D;aspect=fixed;" vertex="1" parent="1">
          <mxGeometry x="451" y="310" width="34.88" height="60" as="geometry" />
        </mxCell>
        <mxCell id="4Eko1OY5xelyAzkIzd4i-20" value="DLC results table" style="verticalLabelPosition=bottom;html=1;verticalAlign=top;align=center;strokeColor=none;fillColor=#666666;shape=mxgraph.azure.cloud_services_configuration_file;pointerEvents=1;" vertex="1" parent="1">
          <mxGeometry x="528" y="310" width="38" height="40" as="geometry" />
        </mxCell>
        <mxCell id="4Eko1OY5xelyAzkIzd4i-22" style="edgeStyle=orthogonalEdgeStyle;rounded=0;orthogonalLoop=1;jettySize=auto;html=1;entryX=0.5;entryY=0;entryDx=0;entryDy=0;entryPerimeter=0;dashed=1;endArrow=none;endFill=0;" edge="1" parent="1" source="4Eko1OY5xelyAzkIzd4i-18" target="4Eko1OY5xelyAzkIzd4i-20">
          <mxGeometry relative="1" as="geometry">
            <Array as="points">
              <mxPoint x="508" y="270" />
              <mxPoint x="547" y="270" />
            </Array>
          </mxGeometry>
        </mxCell>
        <mxCell id="4Eko1OY5xelyAzkIzd4i-27" style="edgeStyle=orthogonalEdgeStyle;rounded=0;orthogonalLoop=1;jettySize=auto;html=1;dashed=1;endArrow=none;endFill=0;" edge="1" parent="1" source="4Eko1OY5xelyAzkIzd4i-23" target="4Eko1OY5xelyAzkIzd4i-25">
          <mxGeometry relative="1" as="geometry">
            <Array as="points">
              <mxPoint x="708" y="270" />
              <mxPoint x="671" y="270" />
            </Array>
          </mxGeometry>
        </mxCell>
        <mxCell id="4Eko1OY5xelyAzkIzd4i-30" value="(4)&lt;br&gt;ROI generation" style="edgeStyle=orthogonalEdgeStyle;rounded=0;orthogonalLoop=1;jettySize=auto;html=1;entryX=0;entryY=0.5;entryDx=0;entryDy=0;strokeWidth=3;" edge="1" parent="1" source="4Eko1OY5xelyAzkIzd4i-23" target="4Eko1OY5xelyAzkIzd4i-29">
          <mxGeometry x="0.1111" y="-25" relative="1" as="geometry">
            <mxPoint x="1" as="offset" />
          </mxGeometry>
        </mxCell>
        <mxCell id="4Eko1OY5xelyAzkIzd4i-37" style="edgeStyle=orthogonalEdgeStyle;rounded=0;orthogonalLoop=1;jettySize=auto;html=1;entryX=0;entryY=0.5;entryDx=0;entryDy=0;strokeWidth=3;strokeColor=#666666;" edge="1" parent="1" source="4Eko1OY5xelyAzkIzd4i-23" target="4Eko1OY5xelyAzkIzd4i-33">
          <mxGeometry relative="1" as="geometry">
            <Array as="points">
              <mxPoint x="707" y="75" />
            </Array>
          </mxGeometry>
        </mxCell>
        <mxCell id="4Eko1OY5xelyAzkIzd4i-23" value="Alignment" style="whiteSpace=wrap;html=1;align=center;fontFamily=Courier New;fontStyle=1;fontSize=14;" vertex="1" parent="1">
          <mxGeometry x="660" y="170" width="100" height="30" as="geometry" />
        </mxCell>
        <mxCell id="4Eko1OY5xelyAzkIzd4i-25" value="alignment video&lt;br&gt;(512 x 512)" style="verticalLabelPosition=bottom;html=1;verticalAlign=top;strokeWidth=1;align=center;outlineConnect=0;dashed=0;outlineConnect=0;shape=mxgraph.aws3d.image;strokeColor=none;fillColor=#4D4D4D;aspect=fixed;" vertex="1" parent="1">
          <mxGeometry x="649" y="310" width="34.88" height="60" as="geometry" />
        </mxCell>
        <mxCell id="4Eko1OY5xelyAzkIzd4i-26" value="Warp matrices table" style="verticalLabelPosition=bottom;html=1;verticalAlign=top;align=center;strokeColor=none;fillColor=#666666;shape=mxgraph.azure.cloud_services_configuration_file;pointerEvents=1;" vertex="1" parent="1">
          <mxGeometry x="725" y="310" width="38" height="40" as="geometry" />
        </mxCell>
        <mxCell id="4Eko1OY5xelyAzkIzd4i-28" style="edgeStyle=orthogonalEdgeStyle;rounded=0;orthogonalLoop=1;jettySize=auto;html=1;dashed=1;endArrow=none;endFill=0;" edge="1" parent="1" source="4Eko1OY5xelyAzkIzd4i-23">
          <mxGeometry relative="1" as="geometry">
            <mxPoint x="740" y="310" as="targetPoint" />
            <Array as="points">
              <mxPoint x="708" y="270" />
              <mxPoint x="740" y="270" />
              <mxPoint x="740" y="310" />
            </Array>
          </mxGeometry>
        </mxCell>
        <mxCell id="4Eko1OY5xelyAzkIzd4i-38" style="edgeStyle=orthogonalEdgeStyle;rounded=0;orthogonalLoop=1;jettySize=auto;html=1;entryX=0;entryY=0.5;entryDx=0;entryDy=0;strokeWidth=3;strokeColor=#666666;" edge="1" parent="1" source="4Eko1OY5xelyAzkIzd4i-29" target="4Eko1OY5xelyAzkIzd4i-33">
          <mxGeometry relative="1" as="geometry">
            <Array as="points">
              <mxPoint x="887" y="75" />
            </Array>
          </mxGeometry>
        </mxCell>
        <mxCell id="4Eko1OY5xelyAzkIzd4i-29" value="ROISet" style="whiteSpace=wrap;html=1;align=center;fontFamily=Courier New;fontStyle=1;fontSize=14;" vertex="1" parent="1">
          <mxGeometry x="850" y="170" width="75" height="30" as="geometry" />
        </mxCell>
        <mxCell id="4Eko1OY5xelyAzkIzd4i-31" value="ROI file&lt;br&gt;(.mat / .h5)" style="verticalLabelPosition=bottom;html=1;verticalAlign=top;align=center;strokeColor=none;fillColor=#666666;shape=mxgraph.azure.cloud_services_configuration_file;pointerEvents=1;" vertex="1" parent="1">
          <mxGeometry x="868" y="311" width="38" height="40" as="geometry" />
        </mxCell>
        <mxCell id="4Eko1OY5xelyAzkIzd4i-32" style="edgeStyle=orthogonalEdgeStyle;rounded=0;orthogonalLoop=1;jettySize=auto;html=1;entryX=0.5;entryY=0;entryDx=0;entryDy=0;entryPerimeter=0;endArrow=none;endFill=0;dashed=1;" edge="1" parent="1" source="4Eko1OY5xelyAzkIzd4i-29" target="4Eko1OY5xelyAzkIzd4i-31">
          <mxGeometry relative="1" as="geometry" />
        </mxCell>
        <mxCell id="4Eko1OY5xelyAzkIzd4i-33" value="Results" style="whiteSpace=wrap;html=1;align=center;fontFamily=Courier New;fontStyle=1;fontSize=14;" vertex="1" parent="1">
          <mxGeometry x="990" y="60" width="75" height="30" as="geometry" />
        </mxCell>
        <mxCell id="4Eko1OY5xelyAzkIzd4i-39" value="Results file&lt;br&gt;(.mat / .h5)" style="verticalLabelPosition=bottom;html=1;verticalAlign=top;align=center;strokeColor=none;fillColor=#666666;shape=mxgraph.azure.cloud_services_configuration_file;pointerEvents=1;" vertex="1" parent="1">
          <mxGeometry x="1008.5" y="314" width="38" height="40" as="geometry" />
        </mxCell>
        <mxCell id="4Eko1OY5xelyAzkIzd4i-40" style="edgeStyle=orthogonalEdgeStyle;rounded=0;orthogonalLoop=1;jettySize=auto;html=1;entryX=0.5;entryY=0;entryDx=0;entryDy=0;entryPerimeter=0;endArrow=none;endFill=0;dashed=1;" edge="1" parent="1" source="4Eko1OY5xelyAzkIzd4i-33" target="4Eko1OY5xelyAzkIzd4i-39">
          <mxGeometry relative="1" as="geometry" />
        </mxCell>
      </root>
    </mxGraphModel>
  </diagram>
</mxfile>
